<?xml version="1.0" encoding="utf-8"?>
<!-- Generator: Adobe Illustrator 25.2.1, SVG Export Plug-In . SVG Version: 6.00 Build 0)  -->
<svg version="1.1" id="Layer_1" xmlns="http://www.w3.org/2000/svg" xmlns:xlink="http://www.w3.org/1999/xlink" x="0px" y="0px"
	 viewBox="0 0 500 500" style="enable-background:new 0 0 500 500;" xml:space="preserve">
<style type="text/css">
	.st0{fill:#90CAF9;}
	.st1{opacity:0.7;}
	.st2{fill:#FFFFFF;}
	.st3{opacity:0.2;fill:#263238;enable-background:new    ;}
	.st4{opacity:0.2;enable-background:new    ;}
	.st5{fill:#FFFFFF;stroke:#263238;stroke-miterlimit:10;}
	.st6{fill:#263238;stroke:#FFFFFF;stroke-miterlimit:10;}
	.st7{opacity:0.2;}
	.st8{fill:#90CAF9;stroke:#263238;stroke-linecap:round;stroke-linejoin:round;}
	.st9{fill:#263238;}
	.st10{clip-path:url(#SVGID_2_);}
	.st11{opacity:0.5;fill:#FFFFFF;enable-background:new    ;}
	.st12{opacity:0.5;}
	.st13{fill:none;}
	.st14{fill:none;stroke:#263238;stroke-miterlimit:10;}
	.st15{clip-path:url(#SVGID_4_);}
	.st16{fill:none;stroke:#263238;stroke-linecap:round;stroke-linejoin:round;}
	.st17{fill:#FFFFFF;stroke:#263238;stroke-linecap:round;stroke-linejoin:round;}
	.st18{fill:#757575;stroke:#263238;stroke-linecap:round;stroke-linejoin:round;}
	.st19{fill:#999999;stroke:#263238;stroke-linecap:round;stroke-linejoin:round;}
	.st20{fill:#BFBFBF;stroke:#263238;stroke-linecap:round;stroke-linejoin:round;}
	.st21{opacity:0.1;fill:#FFFFFF;enable-background:new    ;}
	.st22{clip-path:url(#SVGID_6_);}
</style>
<g id="freepik--background-simple--inject-17">
	<path class="st0" d="M500,245c0,12.1-1.2,24.2-3.6,36c-0.8,3.9-1.8,7.7-2.9,11.5c-0.3,1.1-0.6,2.2-1,3.2c-0.3,0.9-0.6,1.8-0.9,2.6
		l-0.2,0.7c-0.3,0.9-0.6,1.8-1,2.7l-0.2,0.4c-0.3,0.9-0.7,1.8-1,2.6l-0.5,1.1c-0.3,0.8-0.6,1.6-0.9,2.3c-0.3,0.8-0.7,1.6-1,2.4
		c-0.1,0.3-0.2,0.6-0.4,0.9l-0.9,2.1l-0.7,1.6c-1.1,2.5-2.3,4.9-3.6,7.3c-0.5,1-1,2-1.6,2.9c-0.1,0.2-0.2,0.5-0.4,0.7
		c-0.6,1.1-1.2,2.2-1.8,3.3c-0.5,0.9-1,1.8-1.5,2.7l-1.4,2.3l-0.3,0.5c-0.5,0.8-1,1.6-1.5,2.4c-0.6,1-1.2,2-1.8,3
		c-0.1,0.2-0.2,0.4-0.4,0.6c-0.7,1.1-1.4,2.2-2.2,3.3c-0.4,0.7-0.9,1.3-1.3,2c-0.8,1.2-1.6,2.4-2.4,3.6c-0.8,1.2-1.5,2.3-2.3,3.4
		l-0.3,0.4c-0.8,1.1-1.6,2.2-2.4,3.3c-0.2,0.3-0.5,0.7-0.7,1c-0.7,1-1.5,2-2.2,3.1c-2.1,2.9-4.3,5.8-6.4,8.7
		c-4.4,5.9-8.8,11.7-13.4,17.6c-3.8,4.8-7.6,9.6-11.6,14.3c-18.8,22.6-39.2,43.7-61.4,60.5c-2.8,2.1-5.5,4.1-8.3,6.1l-3.1,2.1
		l-0.5,0.4c-1.1,0.7-2.2,1.4-3.2,2.1c-1,0.7-2.2,1.4-3.2,2.1l-1.5,0.9c-2.2,1.3-4.3,2.6-6.5,3.8c-1.2,0.7-2.4,1.3-3.5,1.9
		c-1.2,0.6-2.2,1.1-3.3,1.7l-1.4,0.7c-1,0.5-2,1-3,1.5c-2,0.9-3.9,1.8-5.9,2.6l-2.3,1l-1.3,0.5l-2.2,0.8L313,491H313
		c-1.2,0.4-2.4,0.9-3.7,1.3c-1.9,0.7-3.9,1.3-5.8,1.8c-1.3,0.4-2.6,0.7-3.9,1.1c-1.3,0.3-2.4,0.6-3.7,0.9l-0.3,0.1
		c-1.3,0.3-2.6,0.6-3.8,0.9l-2,0.4l-2,0.4c-0.6,0.1-1.2,0.2-1.8,0.3l-2.2,0.4c-7.7,1.1-15.4,1.6-23.1,1.5h-1.4
		c-7-0.2-14-0.8-20.9-1.8l-1.5-0.2l-2.6-0.4l-2-0.4c-2.9-0.5-5.7-1.1-8.6-1.8c-0.6-0.1-1.3-0.3-1.9-0.5c-1.9-0.5-3.9-1-5.8-1.5
		c-1.3-0.4-2.6-0.7-3.8-1.1l-1.9-0.6l-1.9-0.6c-2.5-0.8-5.1-1.7-7.6-2.5c-2.9-1-5.8-2.1-8.7-3.3l-3.2-1.3c-3.2-1.4-6.5-2.8-9.7-4.3
		l-1.8-0.8l-1.4-0.7l-1-0.5c-2.1-1.1-4.3-2.4-6.8-3.9L167,473c-1.5-0.9-3.1-1.9-4.7-2.9c-3.4-2.2-7-4.6-10.8-7.2
		c-43.2-29.7-109.4-85.6-124.9-106.7c-0.8-1.1-1.6-2.2-2.3-3.3c-0.6-0.9-1.2-1.7-1.8-2.6c-0.6-0.9-1.1-1.6-1.6-2.4
		c-0.5-0.8-0.9-1.4-1.3-2.2c-0.4-0.7-0.8-1.4-1.2-2l-0.1-0.2c-0.5-0.8-1-1.7-1.4-2.5c-0.5-0.8-0.9-1.6-1.3-2.5
		c-0.2-0.4-0.4-0.8-0.6-1.2c-0.5-0.9-1-1.9-1.4-2.8l0,0c-0.5-1-1-2.1-1.5-3.1c-0.8-1.8-1.7-3.7-2.4-5.5L9,324.3
		c-1.5-3.8-2.9-7.7-4-11.7c-0.4-1.4-0.8-2.8-1.2-4.2c-0.5-1.8-0.9-3.6-1.3-5.4c-0.1-0.4-0.2-0.7-0.2-1.1c-0.2-0.9-0.4-1.9-0.5-2.9
		c-0.2-1.3-0.5-2.7-0.6-4c0-0.3-0.1-0.7-0.1-1c-0.1-0.7-0.2-1.4-0.3-2.1s-0.2-1.7-0.3-2.5c0-0.3-0.1-0.6-0.1-0.8
		c-0.1-0.7-0.1-1.4-0.2-2.1c0-0.1,0-0.1,0-0.2c-0.1-0.9-0.1-1.7-0.1-2.5c0-0.1,0-0.2,0-0.2c0-0.9,0-1.8-0.1-2.7v-2.5
		c0-1.3,0.1-2.6,0.1-4c0-0.9,0.1-1.7,0.2-2.5c0.1-1.7,0.3-3.4,0.5-5.1c0.1-0.9,0.2-1.7,0.4-2.5c0.3-1.7,0.6-3.4,0.9-5.1
		c1-4.4,2.2-8.8,3.7-13c1.1-3.2,2.4-6.3,3.9-9.3c0.1-0.3,0.2-0.5,0.4-0.8c5.8-12,13.7-22.6,22.7-32.5c1-1.1,1.9-2.1,2.9-3.1
		c1-1,2.1-2.2,3.1-3.3L39,197c1.7-1.7,3.4-3.4,5.1-5.1c2.6-2.6,5.3-5.1,8-7.7l0.3-0.3c2.3-2.1,4.7-4.3,7-6.4c3.7-3.3,7.4-6.6,11-9.9
		l2.9-2.6c1.1-1,2.1-1.9,3.1-2.9c9.2-8.7,17.8-18.3,25.8-28.6c1.5-1.9,3-3.9,4.5-5.8c0.7-0.9,1.4-1.9,2.1-2.8
		c9.9-13.1,19-26.4,29.2-39c2.4-3,4.9-5.9,7.5-8.8c2.2-2.4,4.3-4.8,6.6-7.1c2.5-2.9,5.2-5.5,7.9-8.1c3.8-3.5,7.9-6.8,12.2-10
		c1.1-0.8,2.2-1.6,3.2-2.3c107.7-78.3,187-52.7,239.9,0c4,4,7.9,8.1,11.6,12.4c2.2,2.5,4.4,5.2,6.5,7.8c0.2,0.3,0.5,0.6,0.7,0.9
		c1.5,1.8,2.9,3.7,4.3,5.6l1.2,1.7c0.6,0.8,1.2,1.7,1.8,2.5c0.6,0.9,1.5,2.1,2.2,3.1l1.4,2c2.9,4.2,5.8,8.6,8.4,12.9
		c0.5,0.9,1.1,1.7,1.6,2.6c3.7,6.1,7.1,12.2,10.3,18.3l1.4,2.6c0.5,0.8,0.9,1.7,1.3,2.6l1.3,2.6c0.4,0.9,0.9,1.7,1.3,2.6l1.2,2.5
		c0.4,0.9,0.8,1.7,1.2,2.5l1.2,2.5c0.4,0.8,0.8,1.7,1.1,2.5l1.1,2.5l1.1,2.5c1.4,3.4,2.8,6.7,4,9.9c0.6,1.6,1.3,3.3,1.8,4.9
		c2.7,7.2,5,14.1,6.9,20.6c0,0,0,0.1,0,0.1c0.2,0.6,0.4,1.3,0.5,1.8c0.2,0.6,0.4,1.3,0.5,1.9c0.2,0.6,0.3,0.9,0.4,1.4
		c0.2,0.7,0.4,1.4,0.6,2.1c0.2,0.7,0.4,1.5,0.6,2.3c0.4,1.4,0.7,2.8,1.1,4.3c0.3,1.2,0.6,2.4,0.8,3.6c0,0.2,0.1,0.4,0.2,0.7
		c0,0.2,0.1,0.4,0.1,0.6c0.2,0.7,0.3,1.4,0.4,2.1c0.4,1.9,0.7,3.8,1.1,5.7c0.2,1,0.4,2.1,0.5,3.1l0.1,0.6c0.2,1,0.3,1.9,0.5,2.9
		c0.2,1.3,0.4,2.6,0.5,3.9c0.1,1,0.3,2,0.4,3c0,0.1,0,0.3,0.1,0.4c0.1,0.7,0.2,1.3,0.2,2c0.1,0.7,0.1,1.1,0.2,1.7c0.2,2,0.4,4,0.5,6
		l0.1,1.4l0.1,2.3c0,0.8,0.1,1.7,0.1,2.5c0,0.7,0.1,1.3,0.1,2c0,1,0.1,1.9,0.1,2.9C500,242.3,500,243.8,500,245z"/>
	<g class="st1">
		<path class="st2" d="M500,245c0,12.1-1.2,24.2-3.6,36c-0.8,3.9-1.8,7.7-2.9,11.5c-0.3,1.1-0.6,2.2-1,3.2c-0.3,0.9-0.6,1.8-0.9,2.6
			l-0.2,0.7c-0.3,0.9-0.6,1.8-1,2.7l-0.2,0.4c-0.3,0.9-0.7,1.8-1,2.6l-0.5,1.1c-0.3,0.8-0.6,1.6-0.9,2.3c-0.3,0.8-0.7,1.6-1,2.4
			c-0.1,0.3-0.2,0.6-0.4,0.9l-0.9,2.1l-0.7,1.6c-1.1,2.5-2.3,4.9-3.6,7.3c-0.5,1-1,2-1.6,2.9c-0.1,0.2-0.2,0.5-0.4,0.7
			c-0.6,1.1-1.2,2.2-1.8,3.3c-0.5,0.9-1,1.8-1.5,2.7l-1.4,2.3l-0.3,0.5c-0.5,0.8-1,1.6-1.5,2.4c-0.6,1-1.2,2-1.8,3
			c-0.1,0.2-0.2,0.4-0.4,0.6c-0.7,1.1-1.4,2.2-2.2,3.3c-0.4,0.7-0.9,1.3-1.3,2c-0.8,1.2-1.6,2.4-2.4,3.6c-0.8,1.2-1.5,2.3-2.3,3.4
			l-0.3,0.4c-0.8,1.1-1.6,2.2-2.4,3.3c-0.2,0.3-0.5,0.7-0.7,1c-0.7,1-1.5,2-2.2,3.1c-2.1,2.9-4.3,5.8-6.4,8.7
			c-4.4,5.9-8.8,11.7-13.4,17.6c-3.8,4.8-7.6,9.6-11.6,14.3c-18.8,22.6-39.2,43.7-61.4,60.5c-2.8,2.1-5.5,4.1-8.3,6.1l-3.1,2.1
			l-0.5,0.4c-1.1,0.7-2.2,1.4-3.2,2.1c-1,0.7-2.2,1.4-3.2,2.1l-1.5,0.9c-2.2,1.3-4.3,2.6-6.5,3.8c-1.2,0.7-2.4,1.3-3.5,1.9
			c-1.2,0.6-2.2,1.1-3.3,1.7l-1.4,0.7c-1,0.5-2,1-3,1.5c-2,0.9-3.9,1.8-5.9,2.6l-2.3,1l-1.3,0.5l-2.2,0.8L313,491H313
			c-1.2,0.4-2.4,0.9-3.7,1.3c-1.9,0.7-3.9,1.3-5.8,1.8c-1.3,0.4-2.6,0.7-3.9,1.1c-1.3,0.3-2.4,0.6-3.7,0.9l-0.3,0.1
			c-1.3,0.3-2.6,0.6-3.8,0.9l-2,0.4l-2,0.4c-0.6,0.1-1.2,0.2-1.8,0.3l-2.2,0.4c-7.7,1.1-15.4,1.6-23.1,1.5h-1.4
			c-7-0.2-14-0.8-20.9-1.8l-1.5-0.2l-2.6-0.4l-2-0.4c-2.9-0.5-5.7-1.1-8.6-1.8c-0.6-0.1-1.3-0.3-1.9-0.5c-1.9-0.5-3.9-1-5.8-1.5
			c-1.3-0.4-2.6-0.7-3.8-1.1l-1.9-0.6l-1.9-0.6c-2.5-0.8-5.1-1.7-7.6-2.5c-2.9-1-5.8-2.1-8.7-3.3l-3.2-1.3c-3.2-1.4-6.5-2.8-9.7-4.3
			l-1.8-0.8l-1.4-0.7l-1-0.5c-2.1-1.1-4.3-2.4-6.8-3.9L167,473c-1.5-0.9-3.1-1.9-4.7-2.9c-3.4-2.2-7-4.6-10.8-7.2
			c-43.2-29.7-109.4-85.6-124.9-106.7c-0.8-1.1-1.6-2.2-2.3-3.3c-0.6-0.9-1.2-1.7-1.8-2.6c-0.6-0.9-1.1-1.6-1.6-2.4
			c-0.5-0.8-0.9-1.4-1.3-2.2c-0.4-0.7-0.8-1.4-1.2-2l-0.1-0.2c-0.5-0.8-1-1.7-1.4-2.5c-0.5-0.8-0.9-1.6-1.3-2.5
			c-0.2-0.4-0.4-0.8-0.6-1.2c-0.5-0.9-1-1.9-1.4-2.8l0,0c-0.5-1-1-2.1-1.5-3.1c-0.8-1.8-1.7-3.7-2.4-5.5L9,324.3
			c-1.5-3.8-2.9-7.7-4-11.7c-0.4-1.4-0.8-2.8-1.2-4.2c-0.5-1.8-0.9-3.6-1.3-5.4c-0.1-0.4-0.2-0.7-0.2-1.1c-0.2-0.9-0.4-1.9-0.5-2.9
			c-0.2-1.3-0.5-2.7-0.6-4c0-0.3-0.1-0.7-0.1-1c-0.1-0.7-0.2-1.4-0.3-2.1s-0.2-1.7-0.3-2.5c0-0.3-0.1-0.6-0.1-0.8
			c-0.1-0.7-0.1-1.4-0.2-2.1c0-0.1,0-0.1,0-0.2c-0.1-0.9-0.1-1.7-0.1-2.5c0-0.1,0-0.2,0-0.2c0-0.9,0-1.8-0.1-2.7
			c0-2.2,0-4.4,0.1-6.5c0-0.9,0.1-1.7,0.2-2.5c0.1-1.7,0.3-3.4,0.5-5.1c0.1-0.9,0.2-1.7,0.4-2.5c0.3-1.7,0.6-3.4,0.9-5.1
			c1-4.4,2.2-8.8,3.7-13c1.1-3.2,2.4-6.3,3.9-9.3c0.1-0.3,0.2-0.5,0.4-0.8c5.8-12,13.7-22.6,22.7-32.5l1.5-1.7l1.4-1.4
			c1.1-1.1,2.1-2.2,3.1-3.3l0.2-0.2c1.7-1.7,3.4-3.4,5.1-5.1c2.6-2.6,5.3-5.1,8-7.7l0.3-0.3c2.3-2.1,4.7-4.3,7-6.4l3.5-3.2
			c2.5-2.2,5-4.5,7.4-6.7l2.9-2.6c1.1-1,2.1-1.9,3.1-2.9c9.2-8.7,17.8-18.3,25.8-28.6c1.5-1.9,3-3.9,4.5-5.8
			c0.7-0.9,1.4-1.9,2.1-2.8c9.9-13.1,19-26.4,29.2-39c2.4-3,4.9-5.9,7.5-8.8c2.2-2.4,4.3-4.8,6.6-7.1c2.5-2.8,5.2-5.5,7.9-8
			c3.8-3.5,7.9-6.8,12.2-10c1.1-0.8,2.2-1.6,3.2-2.3c107.7-78.3,187-52.7,239.9,0c4,4,7.9,8.1,11.6,12.4c2.2,2.5,4.4,5.2,6.5,7.8
			c0.2,0.3,0.5,0.6,0.7,0.9c1.5,1.8,2.9,3.7,4.3,5.6l1.2,1.7c0.6,0.8,1.2,1.7,1.8,2.5c0.6,0.9,1.5,2.1,2.2,3.1l1.4,2
			c2.9,4.2,5.8,8.6,8.4,12.9c0.5,0.9,1.1,1.7,1.6,2.6c3.7,6.1,7.1,12.2,10.3,18.3l1.4,2.6c0.5,0.8,0.9,1.7,1.3,2.6l1.3,2.6
			c0.4,0.9,0.9,1.7,1.3,2.6l1.2,2.5c0.4,0.9,0.8,1.7,1.2,2.5l1.2,2.5c0.4,0.8,0.8,1.7,1.1,2.5l1.1,2.5l1.1,2.5
			c1.4,3.4,2.8,6.7,4,9.9c0.6,1.6,1.3,3.3,1.8,4.9c2.7,7.2,5,14.1,6.9,20.6c0,0,0,0.1,0,0.1c0.2,0.6,0.4,1.3,0.5,1.8
			c0.2,0.6,0.4,1.3,0.5,1.9c0.2,0.6,0.3,0.9,0.4,1.4c0.2,0.7,0.4,1.4,0.6,2.1c0.2,0.7,0.4,1.5,0.6,2.3c0.4,1.4,0.7,2.8,1.1,4.3
			c0.3,1.2,0.6,2.4,0.8,3.6c0,0.2,0.1,0.4,0.2,0.7c0,0.2,0.1,0.4,0.1,0.6c0.2,0.7,0.3,1.4,0.4,2.1c0.4,1.9,0.7,3.8,1.1,5.7
			c0.2,1,0.4,2.1,0.5,3.1l0.1,0.6c0.2,1,0.3,1.9,0.5,2.9c0.2,1.3,0.4,2.6,0.5,3.9c0.1,1,0.3,2,0.4,3c0,0.1,0,0.3,0.1,0.4
			c0.1,0.7,0.2,1.3,0.2,2c0.1,0.7,0.1,1.1,0.2,1.7c0.2,2,0.4,4,0.5,6l0.1,1.4l0.1,2.3c0,0.8,0.1,1.7,0.1,2.5c0,0.7,0.1,1.3,0.1,2
			c0,1,0.1,1.9,0.1,2.9C500,242.3,500,243.8,500,245z"/>
	</g>
</g>
<g id="freepik--Plant--inject-17">
	<path class="st3" d="M14.2,265.7C14,265.6,14.1,265.4,14.2,265.7z"/>
	<path class="st4" d="M115.3,254.6c-1.2,8.6-6.5,15.7-13.6,18.3l-2.7,1c-9.6,16-26.5,22.7-40.9,12.9l-4.2-2.9l-11.8-16.4h-0.1
		c-3.7,0.9-8,0.2-10.7-2.8c-0.4,2.3-2.3,3.9-4.3,3.4c-2-0.4-3.3-2.7-2.9-5c0.2-1,0.6-1.9,1.3-2.5c-2.4,2.5-6.1,1.3-8.3-1.4
		c-0.1-7.4,0.6-14.7,2.2-21.8c0.9-4.4,2.2-8.7,3.7-12.9c1.1-3.2,2.4-6.3,3.9-9.3c0.1-0.3,0.2-0.5,0.4-0.8c2.1-4.4,4.5-8.6,7.2-12.6
		l1.4-1.4c1.1-1.1,2.1-2.2,3.1-3.3l0.2-0.2c1.7-1.7,3.4-3.4,5.1-5.1c2.6-2.6,5.3-5.1,8-7.7l0.3-0.3c2.3-2.1,4.7-4.3,7-6.4l3.5-3.2
		c0.7,0.1,1.4,0.3,2.1,0.6c2.9,1.2,3.4,4.3,5.4,6.4c2.7,2.8,5.2-1.9,9.3-1.8c12.6,0.5,7.7,15.6,13.9,13.7
		c26.5-8.2,22.1,31.5,10.5,40.2C110.7,239.9,116.6,244.2,115.3,254.6z"/>
	<ellipse class="st5" cx="58.2" cy="240.6" rx="44.8" ry="51.7"/>
	<ellipse class="st6" cx="58.2" cy="238.5" rx="40.8" ry="47.2"/>
	<path class="st0" d="M14.3,257.1c-2.6,1.9-3.3,8.1-1.3,10.9c2,2.7,5.9,0.6,6.7-3.6c0.2,0.7,0.9,1.2,1.5,0.9
		c0.3-0.1,0.5-0.3,0.6-0.6c0.4-0.8,0.5-1.8,0.2-2.7c-0.2-0.2-0.1-0.3,0,0c1.3,1.3,3.6-0.1,3.9-2.7c-1,6.9,4.4,13,8.4,9.5
		c-1.2,3,0.4,6.8,2.4,7.6s4.3-0.7,6.2-2.2s4-3.4,6.1-3.5c1.9-0.1,3.6,1.1,5.4,1.9c5.7,2.3,12.3-0.8,16.7-7.7
		c2.9,5.7,10,3.6,11.9-3.5c0.4,3.3,2.4,5.9,4.5,5.9c2.2,0,4.4-2.5,5.1-5.8l0,0c0,3.2,2.5,4.7,4.2,2.7c2.4-3,3.4-7.2,2.5-11.2
		c2.9-0.1,5.8-4.1,6.2-8.8c0.4-4.6-1.5-9.3-4.4-10.2c4.9-2.4,8.6-10.1,8.9-18.1c0.2-7.9-3.3-15.3-8.1-17.1c-1.9-0.9-4.1-0.4-5.5,1.3
		c-0.6-4.5-2.3-8.5-4.9-10.6c-4.1-3.2-9.8-1-12.9,5.1c1.5-3.3,1.6-7.2,0.2-10.6c-1.4-2.9-4.1-4.1-6.4-2.7c-0.5-4.8-3.7-8.3-6.8-7.3
		c-3.1,0.9-5.6,6.1-5.4,11c-0.3-3.9-4.3-4.9-5.7-1.6c0.1,0.3-0.1,0.1,0,0c-2-4.9-6-7.4-9.8-6c-4,1.5-7.3,7.4-7.9,13.8
		c-2.8-3-7.1-2.8-9.7,0.3c-2.9,3.1-4.7,9-4.1,14.3c-3.1-3.6-8.3-1.6-10.4,3.9c-2.1,5.5-0.7,13.4,2.9,15.7c-2.5,0.4-4.7,4.3-4.7,8.2
		c0,3.9,2.2,7.2,4.7,7.1c-2.5,0.3-4.9,3.7-5.2,7.6S11.9,256.3,14.3,257.1z"/>
	<g class="st7">
		<path class="st2" d="M55.5,239c-1.2-1.2-2.8-1.7-4.3-1.3c-1.7,0.8-3,2.6-3.2,4.7c-0.3,2.3,0.6,4.8,2.1,5.2
			c1.8,0.5,3.7-1.9,5.6-1.6c0.7,0.2,1.3,0.4,1.9,0.7c2.7,0.9,5.4-1.9,7.6-4.6c0.9-0.9,1.6-2,2.2-3.1c0.6-1.3,0.7-2.8,0.3-4.2
			c-0.6-1.7-2.3-1.8-3.6-1.5c-2.9,0.8-5.6,2.6-7.6,5.2c0.1-0.6,0.2-1.3,0.2-1.9L55.5,239z"/>
		<path class="st2" d="M94.5,232.8c-0.7-0.8-1.4-1.3-2.3-1.7c-1-0.3-2,0.3-2.4,1.3c-0.7,1.6-0.4,3.5,0.6,4.8c1,0.9,2.1,1.4,3.4,1.5
			c1.2,0.2,2.8,0.2,3.4-1.5c0.4-1.2,0.2-2.6-0.5-3.6c-0.7-0.8-1.5-1.3-2.4-1.6L94.5,232.8z"/>
		<path class="st2" d="M33.4,206.9c-2.7,2.1-4.6,5.5-5.1,9.2c-0.2,1.2-0.2,2.7,0.5,3.3c0.5,0.3,1.2,0.3,1.7,0l7.2-3
			c-1.2,0.7-2.3,1.6-3.2,2.8c-1,1.4-1.5,3.2-1.3,5c0.2,1.8,1.6,3.2,3.2,3.1c1.5-0.3,2.9-1.3,4-2.6c1.4-1.4,2.4-3.4,2.6-5.6
			c0-2.3-1.8-4.3-3-2.7c2.8-1.4,5.5-3.4,7.7-5.8c0.9-0.9,1.7-2,2.3-3.3c0.6-1.3,0.7-2.9,0.3-4.3c-2.3-6.4-5.6,3.5-7.1,4.4
			C40.2,209.1,37.1,204.4,33.4,206.9z"/>
		<path class="st2" d="M21.9,235.9c-0.3,1.2-0.1,2.6,0.6,3.6c0.6,0.6,1.5,0.5,2-0.2c0.2-0.2,0.3-0.4,0.3-0.7
			c-1.8,0.7-3.3,2.1-4.3,3.9c-1.1,2.1-0.8,5.5,0.7,6.2c1,0.4,2-0.4,3-1.2c2.7-2.3,5.2-4.9,7.5-7.8c-0.6,2.1,0.3,4.4,2.1,5.1
			c0.2,0.1,0.4,0.1,0.6,0.2c1.8,0.1,3.5-1.4,5-2.9c1.9-1.8,4.1-4.6,3.6-7.7c-0.3-2.1-1.9-3.5-3.7-3.2c-0.3,0.1-0.6,0.2-0.9,0.3
			c-1.8,0.9-3.2,3.2-4.5,5.4c1.1-2.2-0.3-5.4-2.1-5.6c-1.8-0.2-3.4,1.4-4.5,3.4c2-1.8,2.5-6-0.1-6.3
			C25.4,228.3,22.4,233.8,21.9,235.9z"/>
		<path class="st2" d="M76.5,222.6c-1.5-0.7-3.4,0.9-3.8,3.2s0.7,4.9,2.2,5.1c-1.3,0.3-2.4,1.2-3.1,2.5c-0.5,0.8-0.7,1.7-0.7,2.7
			c0.1,1.3,1,2.2,2.1,2.3c1-0.2,2-0.6,2.8-1.4c-1,0.1-2,0.6-2.8,1.4c-0.8,1-1,2.5-0.5,3.8c0.6,0.8,1.5,0.6,2.3,0.2
			c1.9-0.9,3.5-2.4,4.7-4.3c0.8,1.6,2.3,2.5,3.9,2.2c1.7-0.8,2.7-2.8,2.3-4.9c-0.3-1.3-1.2-2.3-2.4-2.5c-1.1,0-2.2,0.3-3.1,0.9
			c1.2-1.1,2.1-2.6,2.6-4.3c0.4-1.8-0.4-4.2-1.6-3.9c-1.4,0.3-2.2,3.2-3.3,4.3C76.9,228.2,79.5,224,76.5,222.6z"/>
		<path class="st2" d="M51.2,215.6c-1.6,1.7-2.2,5-2.2,7.8c0.1,3.2,1,6.5,2.9,7.7c2.5,1.5,5.8-1.9,6.4-6.1c0.5-3.9-0.9-7.8-3.7-10
			C53.5,214.4,52.1,214.6,51.2,215.6z"/>
		<path class="st2" d="M69.3,210.9l0.6,0.8c-0.8-1.6-2.6-2-3.9-1.1c-0.3,0.2-0.6,0.5-0.8,0.9c-1.3,2.1-1.4,4.9-0.1,7
			c1.1,1.4,3,1.4,4.1,0.1c0.2-0.3,0.4-0.6,0.6-0.9c2,1.2,4.5,0.3,5.7-2c1.4-2.4,1.1-6.5-0.6-7.9c-1.7-1.4-4.5,1.1-4.3,4.1l-0.8-1.3
			L69.3,210.9z"/>
		<path class="st2" d="M89.1,214.3c-1.5,1.9-2.5,4.2-3.2,6.7c-0.5,2.6,0.2,5.8,1.9,6.3c1.7,0.5,3.4-1.7,4.4-4c1.1-2,1.5-4.5,1.2-6.8
			c-0.5-2.2-2.6-3.4-3.8-1.6L89.1,214.3z"/>
		<path class="st2" d="M60.7,200.7c-0.4-1.5-1.8-2.4-3.1-2c-0.3,0.1-0.7,0.3-0.9,0.6c-1.4,1.7-1.9,4.1-1.4,6.3
			c0.4,2,1.9,3.4,3.6,3.7c2.2,0,4-2.2,3.9-4.7c0-0.1,0-0.3,0-0.4c0.8,1.5,2.3,2.2,3.7,1.8c1.5-0.4,2.8-1.3,3.9-2.5
			c1.7-1.5,3.4-3.8,3.3-6.6c0-2-1.3-3.7-3-3.9c-1.7,0.1-3.2,1-4.2,2.6c-0.9,1.2-1.7,2.7-2.7,3.8c-1,1.1-2.3,1.7-3.3,0.9L60.7,200.7z
			"/>
	</g>
</g>
<g id="freepik--Keyboard--inject-17">
	<rect x="136.9" y="279" class="st8" width="249.2" height="122.8"/>
	<rect x="142.1" y="286.4" class="st5" width="23.4" height="15.2"/>
	<rect x="343.4" y="360.4" class="st5" width="36.9" height="15.2"/>
	<rect x="357.6" y="305.4" class="st5" width="22.8" height="15.2"/>
	<rect x="142.1" y="341.7" class="st5" width="23.4" height="15.2"/>
	<rect x="142.1" y="323.4" class="st5" width="19" height="15.2"/>
	<rect x="142.1" y="304.9" class="st5" width="13" height="15.2"/>
	<rect x="158.7" y="304.9" class="st5" width="13" height="15.2"/>
	<rect x="175.3" y="304.9" class="st5" width="13" height="15.2"/>
	<rect x="191.8" y="304.9" class="st5" width="13" height="15.2"/>
	<rect x="208.4" y="304.9" class="st5" width="13" height="15.2"/>
	<rect x="225" y="304.9" class="st5" width="13" height="15.2"/>
	<rect x="241.5" y="304.9" class="st5" width="13" height="15.2"/>
	<rect x="258.1" y="304.9" class="st5" width="13" height="15.2"/>
	<rect x="274.7" y="304.9" class="st5" width="13" height="15.2"/>
	<rect x="291.2" y="304.9" class="st5" width="13" height="15.2"/>
	<rect x="307.8" y="304.9" class="st5" width="13" height="15.2"/>
	<rect x="324.4" y="304.9" class="st5" width="13" height="15.2"/>
	<rect x="340.9" y="304.9" class="st5" width="13" height="15.2"/>
	<rect x="142.1" y="379.1" class="st5" width="13" height="15.2"/>
	<rect x="158.7" y="379.1" class="st5" width="13" height="15.2"/>
	<rect x="175.3" y="379.1" class="st5" width="13" height="15.2"/>
	<rect x="191.8" y="379.1" class="st5" width="15.8" height="15.2"/>
	<rect x="211.3" y="379.1" class="st5" width="79.3" height="15.2"/>
	<rect x="317.2" y="379.1" class="st5" width="13" height="15.2"/>
	<rect x="333.7" y="379.1" class="st5" width="13" height="15.2"/>
	<rect x="350.3" y="379.1" class="st5" width="13" height="15.2"/>
	<rect x="293.7" y="379.1" class="st5" width="20.2" height="15.2"/>
	<rect x="367.4" y="379.1" class="st5" width="13" height="15.2"/>
	<rect x="164.8" y="323.4" class="st5" width="13" height="15.2"/>
	<rect x="181.4" y="323.4" class="st5" width="13" height="15.2"/>
	<rect x="197.9" y="323.4" class="st5" width="13" height="15.2"/>
	<rect x="214.5" y="323.4" class="st5" width="13" height="15.2"/>
	<rect x="231.1" y="323.4" class="st5" width="13" height="15.2"/>
	<rect x="247.6" y="323.4" class="st5" width="13" height="15.2"/>
	<rect x="264.2" y="323.4" class="st5" width="13" height="15.2"/>
	<rect x="280.8" y="323.4" class="st5" width="13" height="15.2"/>
	<rect x="297.3" y="323.4" class="st5" width="13" height="15.2"/>
	<rect x="313.9" y="323.4" class="st5" width="13" height="15.2"/>
	<rect x="330.5" y="323.4" class="st5" width="13" height="15.2"/>
	<rect x="347" y="323.4" class="st5" width="13" height="15.2"/>
	<polygon class="st5" points="380.4,323.4 380.4,357.1 367.4,357.1 367.4,338.6 363.6,338.6 363.6,323.4 	"/>
	<rect x="168.6" y="341.9" class="st5" width="13" height="15.2"/>
	<rect x="185.2" y="341.9" class="st5" width="13" height="15.2"/>
	<rect x="201.7" y="341.9" class="st5" width="13" height="15.2"/>
	<rect x="218.3" y="341.9" class="st5" width="13" height="15.2"/>
	<rect x="234.9" y="341.9" class="st5" width="13" height="15.2"/>
	<rect x="251.4" y="341.9" class="st5" width="13" height="15.2"/>
	<rect x="268" y="341.9" class="st5" width="13" height="15.2"/>
	<rect x="284.6" y="341.9" class="st5" width="13" height="15.2"/>
	<rect x="301.1" y="341.9" class="st5" width="13" height="15.2"/>
	<rect x="317.7" y="341.9" class="st5" width="13" height="15.2"/>
	<rect x="334.3" y="341.9" class="st5" width="13" height="15.2"/>
	<rect x="350.8" y="341.9" class="st5" width="13" height="15.2"/>
	<rect x="161.6" y="360.4" class="st5" width="13" height="15.2"/>
	<rect x="178.1" y="360.4" class="st5" width="13" height="15.2"/>
	<rect x="194.7" y="360.4" class="st5" width="13" height="15.2"/>
	<rect x="211.3" y="360.4" class="st5" width="13" height="15.2"/>
	<rect x="227.8" y="360.4" class="st5" width="13" height="15.2"/>
	<rect x="244.4" y="360.4" class="st5" width="13" height="15.2"/>
	<rect x="261" y="360.4" class="st5" width="13" height="15.2"/>
	<rect x="277.5" y="360.4" class="st5" width="13" height="15.2"/>
	<rect x="294.1" y="360.4" class="st5" width="13" height="15.2"/>
	<rect x="310.7" y="360.4" class="st5" width="13" height="15.2"/>
	<rect x="327.2" y="360.4" class="st5" width="13" height="15.2"/>
	<rect x="168.6" y="287.3" class="st5" width="13" height="15.2"/>
	<rect x="185.2" y="287.3" class="st5" width="13" height="15.2"/>
	<rect x="201.7" y="287.3" class="st5" width="13" height="15.2"/>
	<rect x="218.3" y="287.3" class="st5" width="13" height="15.2"/>
	<rect x="234.9" y="287.3" class="st5" width="13" height="15.2"/>
	<rect x="251.4" y="287.3" class="st5" width="13" height="15.2"/>
	<rect x="268" y="287.3" class="st5" width="13" height="15.2"/>
	<rect x="284.6" y="287.3" class="st5" width="13" height="15.2"/>
	<rect x="301.1" y="287.3" class="st5" width="13" height="15.2"/>
	<rect x="317.7" y="287.3" class="st5" width="13" height="15.2"/>
	<rect x="334.3" y="287.3" class="st5" width="13" height="15.2"/>
	<rect x="350.8" y="287.3" class="st5" width="13" height="15.2"/>
	<rect x="367.4" y="287.3" class="st5" width="13" height="15.2"/>
	<rect x="142.1" y="360.4" class="st5" width="15.7" height="15.2"/>
	<polygon class="st9" points="136.9,279.8 142.1,277.8 382.8,277.8 386.2,279.8 	"/>
</g>
<g id="freepik--Hands--inject-17">
	<path class="st4" d="M314.8,490.3l-5.1-35.7c-1.1-5.3-3.5-10.2-6.9-14c-10.1-11.4-23.4-23-24-37.9c-0.9-22.7-3.9-22.1-3.6-27.7
		c1.3-2.7,2.5-5.5,3.5-8.3c0.6-2.2,1.1-4.5,1.5-6.7c0.4-2.3,2.3-3.9,4.3-3.6c1.4,0.2,2.6,0.9,3.7,2c1.8,2.2,2.8,5.2,2.7,8.2
		c0,3-0.4,6-1.1,8.9c1.7,5,2.8,10.3,3.2,15.7c1.2-4.2,2-8.4,3.2-12.5c0.2-0.2,0.2-0.5,0.4-0.6c-1.6-4.1-0.2-3.9-3.5-12.9
		c-5.4-15.2-11.5-29.8-15.8-48.8c-0.4-1.8-0.3-3.6,0.1-5.4c1.6-5.4,6.4-4.2,8.5-1c0.5,0.8,1,1.8,1.3,2.8c2.8,8.1,6.3,15.9,10.3,23.3
		l11.8,21c0,0,4.1-3.9,4.7-5.7l0,0c0.6-1.8,0.9-16,0.9-16s-0.9,2.7-3,2.5c-1.5-0.1-4.5,0.9-6.7-1.9c-1.7-2.4-1.8-5.8-0.2-8.3
		l5.3-8.4c2.4-2.2,5.6-2.6,8.4-1.2c3.4,2,6.6,4.6,9.4,7.7c2.8-0.1,5.6,0.5,8.2,1.8c3.8,2.1,7.7,8.2,7.7,8.2s4.4,0.3,6.4,2
		c0.5,0.4,7.2,12.6,4.8,22.1c-1.4,5.7-2.3,13.9-3,16.1l-3.3,55.7l6.6,36.6l-14.2,9.3c-5.2,3.4-10.6,6.2-16.2,8.5L314.8,490.3z"/>
	<path class="st2" d="M355.2,425.2l0.1-55.9c0.5-2.2,0.9-10.5,2-16.3c1.9-9.7-5.5-21.4-6-21.7c-2.1-1.5-6.5-1.5-6.5-1.5
		s-4.3-5.8-8.2-7.6c-2.6-1.1-5.5-1.6-8.3-1.3c-3-2.9-6.3-5.2-9.8-7c-2.8-1.3-6-0.6-8.3,1.8l-4.8,8.8c-1.5,2.6-1.2,6,0.7,8.2
		c2.3,2.7,5.3,1.4,6.8,1.4c2.1,0,2.8-2.7,2.8-2.7s0.5,14.2,0,16l0,0c-0.5,1.8-4.4,6-4.4,6l-13-20c-4.5-7.1-8.3-14.6-11.6-22.5
		c-0.4-1-0.9-1.8-1.5-2.6c-2.3-3-7.1-3.9-8.4,1.7c-0.3,1.8-0.2,3.6,0.2,5.4c5.4,18.7,12.3,32.8,18.6,47.5c3.7,8.7,2.3,8.6,4.2,12.6
		c-0.2,0.2-0.1,0.5-0.3,0.7c-0.9,4.2-1.5,8.5-2.5,12.7c-0.8-5.3-2.2-10.5-4.1-15.4c0.5-3,0.7-6,0.6-9c-0.2-3-1.3-5.9-3.2-8
		c-1.1-1-2.4-1.6-3.8-1.7c-2.1-0.2-3.9,1.6-4.1,3.9c-0.2,2.3-0.6,4.6-1.1,6.8c-0.8,2.9-1.8,5.8-3,8.6c0,5.6,3,4.7,5.2,27.4
		c1.7,17.7,21.1,29.3,31.7,42.1l11.3,41.5c13.2-6.2,25.9-14,37.8-23.1L355.2,425.2z"/>
	<g>
		<defs>
			<path id="SVGID_1_" d="M355.2,425.2l0.1-55.9c0.5-2.2,0.9-10.5,2-16.3c1.9-9.7-5.5-21.4-6-21.7c-2.1-1.5-6.5-1.5-6.5-1.5
				s-4.3-5.8-8.2-7.6c-2.6-1.1-5.5-1.6-8.3-1.3c-3-2.9-6.3-5.2-9.8-7c-2.8-1.3-6-0.6-8.3,1.8l-4.8,8.8c-1.5,2.6-1.2,6,0.7,8.2
				c2.3,2.7,5.3,1.4,6.8,1.4c2.1,0,2.8-2.7,2.8-2.7s0.5,14.2,0,16l0,0c-0.5,1.8-4.4,6-4.4,6l-13-20c-4.5-7.1-8.3-14.6-11.6-22.5
				c-0.4-1-0.9-1.8-1.5-2.6c-2.3-3-7.1-3.9-8.4,1.7c-0.3,1.8-0.2,3.6,0.2,5.4c5.4,18.7,12.3,32.8,18.6,47.5
				c3.7,8.7,2.3,8.6,4.2,12.6c-0.2,0.2-0.1,0.5-0.3,0.7c-0.9,4.2-1.5,8.5-2.5,12.7c-0.8-5.3-2.2-10.5-4.1-15.4c0.5-3,0.7-6,0.6-9
				c-0.2-3-1.3-5.9-3.2-8c-1.1-1-2.4-1.6-3.8-1.7c-2.1-0.2-3.9,1.6-4.1,3.9c-0.2,2.3-0.6,4.6-1.1,6.8c-0.8,2.9-1.8,5.8-3,8.6
				c0,5.6,3,4.7,5.2,27.4c1.7,17.7,21.1,29.3,31.7,42.1l11.3,41.5c13.2-6.2,25.9-14,37.8-23.1L355.2,425.2z"/>
		</defs>
		<clipPath id="SVGID_2_">
			<use xlink:href="#SVGID_1_"  style="overflow:visible;"/>
		</clipPath>
		<g class="st10">
			<path class="st0" d="M349.6,349.3c0.5-1.7,1.3-3.2,2.5-4.4c1.2-1.2,3-1.1,4.1,0.2c-0.8-2.9-1.7-5.8-2.6-8.6
				c-0.5-2.2-1.6-4.3-3-5.9c-1.5-1.5-4.1-1.8-5.4,0c0.9,6.6,1,13.3,0.3,20c-0.4,3.6-0.9,7.7,1.1,10.4c0.6,0.5,1.6-0.4,1.2-1.2
				c-0.2-0.4-0.8-0.4-1.1-0.4C347.5,356,348.5,352.6,349.6,349.3z"/>
			<path class="st0" d="M349.6,349.3c0.5-1.7,1.3-3.2,2.5-4.4c1.2-1.2,3-1.1,4.1,0.2c-0.8-2.9-1.7-5.8-2.6-8.6
				c-0.5-2.2-1.6-4.3-3-5.9c-1.5-1.5-4.1-1.8-5.4,0c0.9,6.6,1,13.3,0.3,20c-0.4,3.6-0.9,7.7,1.1,10.4c0.6,0.5,1.6-0.4,1.2-1.2
				c-0.2-0.4-0.8-0.4-1.1-0.4C347.5,356,348.5,352.6,349.6,349.3z"/>
			<path class="st11" d="M349.6,349.3c0.5-1.7,1.3-3.2,2.5-4.4c1.2-1.2,3-1.1,4.1,0.2c-0.8-2.9-1.7-5.8-2.6-8.6
				c-0.5-2.2-1.6-4.3-3-5.9c-1.5-1.5-4.1-1.8-5.4,0c0.9,6.6,1,13.3,0.3,20c-0.4,3.6-0.9,7.7,1.1,10.4c0.6,0.5,1.6-0.4,1.2-1.2
				c-0.2-0.4-0.8-0.4-1.1-0.4C347.5,356,348.5,352.6,349.6,349.3z"/>
			<path class="st0" d="M332.4,343.3c0,2.4,0.2,4.9,0.6,7.3c0.4,2.4,1.7,4.5,3.5,5.8c-1.1-4.7-0.5-9.7,0.1-14.5l1.1-8.8
				c0.1-1,0.3-2,0.8-2.9c0.5-0.9,1.4-1.3,2.3-1c-1.1,0.7-2.5-0.3-3.1-1.5c-0.5-1.3-1-2.6-1.7-3.9c-1.4-2.2-4.5-2.7-6.7-2.1
				C329.8,329,332.1,335.9,332.4,343.3z"/>
			<path class="st0" d="M332.4,343.3c0,2.4,0.2,4.9,0.6,7.3c0.4,2.4,1.7,4.5,3.5,5.8c-1.1-4.7-0.5-9.7,0.1-14.5l1.1-8.8
				c0.1-1,0.3-2,0.8-2.9c0.5-0.9,1.4-1.3,2.3-1c-1.1,0.7-2.5-0.3-3.1-1.5c-0.5-1.3-1-2.6-1.7-3.9c-1.4-2.2-4.5-2.7-6.7-2.1
				C329.8,329,332.1,335.9,332.4,343.3z"/>
			<g class="st12">
				<path class="st2" d="M332.4,343.3c0,2.4,0.2,4.9,0.6,7.3c0.4,2.4,1.7,4.5,3.5,5.8c-1.1-4.7-0.5-9.7,0.1-14.5l1.1-8.8
					c0.1-1,0.3-2,0.8-2.9c0.5-0.9,1.4-1.3,2.3-1c-1.1,0.7-2.5-0.3-3.1-1.5c-0.5-1.3-1-2.6-1.7-3.9c-1.4-2.2-4.5-2.7-6.7-2.1
					C329.8,329,332.1,335.9,332.4,343.3z"/>
			</g>
			<path class="st0" d="M314.8,323.8c-0.6-0.7-1-1.6-1.1-2.7c-0.1-1-0.6-1.9-1.3-2.5c-3.3,2.5-1.5,9.7-4.9,12.1
				c-0.6,0.5-1.5,0.7-1.8,1.5c-0.3,0.8-0.1,1.6,0.4,2.2c0.5,0.6,1.1,0.9,1.8,1c2.7,0.4,5.5-0.9,7.1-3.6c1.3-2.1,2.2-5.5,1.6-8
				C315.9,324.2,315.3,324.2,314.8,323.8z"/>
			<path class="st0" d="M280.3,371.1c0,0.3-0.1,0.6,0.1,0.8c0.2,0.2,0.7-0.2,0.9-0.5c1.5-2.3,4.1-3.3,6.4-2.4c0.9,0,1.2-1.6,0.6-2.4
				c-0.7-0.7-1.5-1-2.4-0.9c-0.9,0.1-1.8-0.1-2.5-0.5c-0.9-0.7-1.3-2-1.1-3.2C281.6,365,281,368,280.3,371.1z"/>
			<g class="st12">
				<path class="st2" d="M314.8,323.8c-0.6-0.7-1-1.6-1.1-2.7c-0.1-1-0.6-1.9-1.3-2.5c-3.3,2.5-1.5,9.7-4.9,12.1
					c-0.6,0.5-1.5,0.7-1.8,1.5c-0.3,0.8-0.1,1.6,0.4,2.2c0.5,0.6,1.1,0.9,1.8,1c2.7,0.4,5.5-0.9,7.1-3.6c1.3-2.1,2.2-5.5,1.6-8
					C315.9,324.2,315.3,324.2,314.8,323.8z"/>
				<path class="st2" d="M280.3,371.1c0,0.3-0.1,0.6,0.1,0.8c0.2,0.2,0.7-0.2,0.9-0.5c1.5-2.3,4.1-3.3,6.4-2.4
					c0.9,0,1.2-1.6,0.6-2.4c-0.7-0.7-1.5-1-2.4-0.9c-0.9,0.1-1.8-0.1-2.5-0.5c-0.9-0.7-1.3-2-1.1-3.2C281.6,365,281,368,280.3,371.1
					z"/>
			</g>
			<path class="st0" d="M324.2,322.9c-1.9-0.3-3.9-0.4-5.5-1.5c-2.1-1.4-3.5-4.4-5.9-4.5c-2.2-0.1-3.7,2.2-4.9,4.2
				c0-3.2,1.7-6,4.3-7.1c2.5-1,5.3-0.9,7.7,0.4c2.4,1.3,4.7,2.9,6.7,4.9c0.9,0.7,1.6,1.5,2.3,2.5
				C331.6,326.7,325.9,323.1,324.2,322.9z"/>
			<path class="st11" d="M324.2,322.9c-1.9-0.3-3.9-0.4-5.5-1.5c-2.1-1.4-3.5-4.4-5.9-4.5c-2.2-0.1-3.7,2.2-4.9,4.2
				c0-3.2,1.7-6,4.3-7.1c2.5-1,5.3-0.9,7.7,0.4c2.4,1.3,4.7,2.9,6.7,4.9c0.9,0.7,1.6,1.5,2.3,2.5
				C331.6,326.7,325.9,323.1,324.2,322.9z"/>
			<path class="st0" d="M290.5,394.6c0.1-0.3,0.2-0.6,0.3-0.8C290.6,394,290.4,394.3,290.5,394.6z"/>
			<path class="st0" d="M293.7,375.1c-0.2-3.1,0.2-6.2,0.1-9.4c-0.1-3.1-0.8-6.4-2.8-8.6c-2.8-3.1-10.4-1.5-7.9,4.3
				c0.8,1.6,2.5,2.4,4,1.7c1.4-0.8,2.1-2.8,1.4-4.5c0,0,0,0,0-0.1c3.1,5.7,2.8,13-0.7,18.4c4,4.2,5.2,11,3,16.7
				c0.5-0.4,1.2-0.4,1.8,0c0.7,0.8,1.1,1.8,1.4,2.9c0.4,1,1.1,2.1,2,2c1.3-3.7,0.9-8,0-11.9C295.1,382.9,293.9,379.1,293.7,375.1z"
				/>
			<path class="st0" d="M321.6,316.5c-1.5-1.3-3.2-2.2-5.1-2.5L321.6,316.5z"/>
			<path class="st0" d="M334.3,356c-0.4-2.1-1.3-4.1-1.8-6.3c-1.2-4.9-0.4-10.2-1-15.3c-0.7-6.7-3.6-12.7-8-17l-1.9-1
				c1.9,1.7,3.2,4,3.9,6.6c1.5,6,2,12.3,2.6,18.6c1,9.6,2.5,19.2,4.5,28.7C333.9,365.6,335.2,360.7,334.3,356z"/>
			<path class="st0" d="M313.7,333.5c1.3-1.3,2.1-3.2,2.3-5.2c0.1-1.8,0.1-3.6-0.1-5.3c-0.2,0.8-1,1.4-1.7,1.2
				c-0.9-0.4-1.6-1.2-2-2.2l-0.4,1.6l-0.2-0.9l-0.5,0.8c0.8,2.5,1.5,5.5,0.3,7.8c-0.6,1.1-1.5,2-2.4,2.6
				C310.5,335,312.4,334.9,313.7,333.5z"/>
			<path class="st0" d="M315.8,322.4l0.1,0.6C315.9,322.8,315.9,322.6,315.8,322.4z"/>
			<path class="st0" d="M310.2,348c-3.8-8.7-7.6-17.4-11.7-25.9c-2.3-5-5.1-9.8-8.3-14.1c-1.4-1.9-5.6-6.3-7.9-3.4
				c-1.5,1.9,0.5,5.4-1.4,7.5c0.4,0,2.5-0.2,2.8,0.1c4.8,6.9,7.3,15.6,7.2,24.5c1.5-1.4,3.6,0.5,4.8,2.3c7.3,11,14.2,22.4,20.5,34.2
				c-1.2-5.2-1.3-10.8-2.6-15.9C312.8,354.1,311.6,350.9,310.2,348z"/>
			<path class="st0" d="M354.2,369.2c1.9-5.6,3.1-11.5,3.4-17.5c0.2-5.6-1-11.1-3.4-15.8c-0.6-1.2-3.2-6-4.6-5.6
				c-2.5,0.7,0.8,5.9,1.4,7.2c2.2,4.9,4.4,10,4.3,15.5c-0.1,4.2-1.6,8.2-2.9,12.2c-0.9,2.8-1.4,5.7-1.5,8.7c-0.2,0.3-0.4,0.7-0.6,1
				c-1.6,2.7-4,4.6-6.8,5.2c1.1-3.8,2.1-7.6,3.1-11.4c0.4-1.4,0.5-3.2-0.2-4.1c0.2-0.5,0.3-1.1,0.3-1.6c-0.1-1-0.5-2-0.9-2.9
				c-1.4-3.6-1-7.9-0.6-11.9c0.4-4.9,0.6-10-0.6-14.7c-1.2-4.7-4.1-9.1-8.1-10.7l1.1,1.3l-1.4-1.2l2.5,6.2l-0.9,1.6
				c1.4-0.9,3.2,0.4,3.8,2.1c0.5,1.8,0.6,3.6,0.3,5.4c-0.8,10.2-0.4,20.6,1.3,30.7c-0.1,2.4-0.6,4.7-1.6,6.7
				c-1.1,2.3-3.2,3.6-5.4,3.4c0.5-2.5-0.3-5.2-2.1-6.7c-2.2,3.5-0.9,9-0.6,13.1c0.5,6.1,1.3,12.2,2.5,18.1
				c0.3-5.2,1.3-10.3,2.8-15.2c1.2,5,2.3,10,3.5,15c-0.1-1.4,0.2-2.8,0.7-4.1c0.5-1.3,1.8-2,3-1.6c0.9,0.6,1.5,1.5,1.8,2.6
				c3.1,8.6,3.8,18.2,2.2,27.3c1.4,0.9,3.4-0.2,4.2-1.9c0.7-1.8,0.9-3.7,0.8-5.7C354.7,402.9,354.5,386,354.2,369.2z"/>
			<path class="st0" d="M317.6,374.5c-0.7,1.4,2.2,7.1,2.6,8.4c2.4,6.8,4.8,13.6,7.1,20.4c-0.8-9-2.7-17.8-5.5-26.1
				C321.3,375.8,319,371.7,317.6,374.5z"/>
			<path class="st0" d="M321.3,338.5c-0.4,0.7-1,1.6-1.7,1.4s-0.8-1.3-0.8-2.1c0.1-4.7,0.1-9.5,0.2-14.2c-3.2,2.7-2.9,6.3-3.1,10.4
				c-0.1,2.4,0.5,13.6-0.9,15c3.2-3.2,6-7.1,8-11.4C322.5,337,321.7,337.8,321.3,338.5z"/>
			<g class="st12">
				<path class="st2" d="M290.5,394.6c0.1-0.3,0.2-0.6,0.3-0.8C290.6,394,290.4,394.3,290.5,394.6z"/>
				<path class="st2" d="M293.7,375.1c-0.2-3.1,0.2-6.2,0.1-9.4c-0.1-3.1-0.8-6.4-2.8-8.6c-2.8-3.1-10.4-1.5-7.9,4.3
					c0.8,1.6,2.5,2.4,4,1.7c1.4-0.8,2.1-2.8,1.4-4.5c0,0,0,0,0-0.1c3.1,5.7,2.8,13-0.7,18.4c4,4.2,5.2,11,3,16.7
					c0.5-0.4,1.2-0.4,1.8,0c0.7,0.8,1.1,1.8,1.4,2.9c0.4,1,1.1,2.1,2,2c1.3-3.7,0.9-8,0-11.9C295.1,382.9,293.9,379.1,293.7,375.1z"
					/>
				<path class="st2" d="M321.6,316.5c-1.5-1.3-3.2-2.2-5.1-2.5L321.6,316.5z"/>
				<path class="st2" d="M334.3,356c-0.4-2.1-1.3-4.1-1.8-6.3c-1.2-4.9-0.4-10.2-1-15.3c-0.7-6.7-3.6-12.7-8-17l-1.9-1
					c1.9,1.7,3.2,4,3.9,6.6c1.5,6,2,12.3,2.6,18.6c1,9.6,2.5,19.2,4.5,28.7C333.9,365.6,335.2,360.7,334.3,356z"/>
				<path class="st2" d="M313.7,333.5c1.3-1.3,2.1-3.2,2.3-5.2c0.1-1.8,0.1-3.6-0.1-5.3c-0.2,0.8-1,1.4-1.7,1.2
					c-0.9-0.4-1.6-1.2-2-2.2l-0.4,1.6l-0.2-0.9l-0.5,0.8c0.8,2.5,1.5,5.5,0.3,7.8c-0.6,1.1-1.5,2-2.4,2.6
					C310.5,335,312.4,334.9,313.7,333.5z"/>
				<path class="st2" d="M315.8,322.4l0.1,0.6C315.9,322.8,315.9,322.6,315.8,322.4z"/>
				<path class="st2" d="M310.2,348c-3.8-8.7-7.6-17.4-11.7-25.9c-2.3-5-5.1-9.8-8.3-14.1c-1.4-1.9-5.6-6.3-7.9-3.4
					c-1.5,1.9,0.5,5.4-1.4,7.5c0.4,0,2.5-0.2,2.8,0.1c4.8,6.9,7.3,15.6,7.2,24.5c1.5-1.4,3.6,0.5,4.8,2.3
					c7.3,11,14.2,22.4,20.5,34.2c-1.2-5.2-1.3-10.8-2.6-15.9C312.8,354.1,311.6,350.9,310.2,348z"/>
				<path class="st2" d="M354.2,369.2c1.9-5.6,3.1-11.5,3.4-17.5c0.2-5.6-1-11.1-3.4-15.8c-0.6-1.2-3.2-6-4.6-5.6
					c-2.5,0.7,0.8,5.9,1.4,7.2c2.2,4.9,4.4,10,4.3,15.5c-0.1,4.2-1.6,8.2-2.9,12.2c-0.9,2.8-1.4,5.7-1.5,8.7c-0.2,0.3-0.4,0.7-0.6,1
					c-1.6,2.7-4,4.6-6.8,5.2c1.1-3.8,2.1-7.6,3.1-11.4c0.4-1.4,0.5-3.2-0.2-4.1c0.2-0.5,0.3-1.1,0.3-1.6c-0.1-1-0.5-2-0.9-2.9
					c-1.4-3.6-1-7.9-0.6-11.9c0.4-4.9,0.6-10-0.6-14.7c-1.2-4.7-4.1-9.1-8.1-10.7l1.1,1.3l-1.4-1.2l2.5,6.2l-0.9,1.6
					c1.4-0.9,3.2,0.4,3.8,2.1c0.5,1.8,0.6,3.6,0.3,5.4c-0.8,10.2-0.4,20.6,1.3,30.7c-0.1,2.4-0.6,4.7-1.6,6.7
					c-1.1,2.3-3.2,3.6-5.4,3.4c0.5-2.5-0.3-5.2-2.1-6.7c-2.2,3.5-0.9,9-0.6,13.1c0.5,6.1,1.3,12.2,2.5,18.1
					c0.3-5.2,1.3-10.3,2.8-15.2c1.2,5,2.3,10,3.5,15c-0.1-1.4,0.2-2.8,0.7-4.1c0.5-1.3,1.8-2,3-1.6c0.9,0.6,1.5,1.5,1.8,2.6
					c3.1,8.6,3.8,18.2,2.2,27.3c1.4,0.9,3.4-0.2,4.2-1.9c0.7-1.8,0.9-3.7,0.8-5.7C354.7,402.9,354.5,386,354.2,369.2z"/>
				<path class="st2" d="M317.6,374.5c-0.7,1.4,2.2,7.1,2.6,8.4c2.4,6.8,4.8,13.6,7.1,20.4c-0.8-9-2.7-17.8-5.5-26.1
					C321.3,375.8,319,371.7,317.6,374.5z"/>
				<path class="st2" d="M321.3,338.5c-0.4,0.7-1,1.6-1.7,1.4s-0.8-1.3-0.8-2.1c0.1-4.7,0.1-9.5,0.2-14.2c-3.2,2.7-2.9,6.3-3.1,10.4
					c-0.1,2.4,0.5,13.6-0.9,15c3.2-3.2,6-7.1,8-11.4C322.5,337,321.7,337.8,321.3,338.5z"/>
			</g>
		</g>
	</g>
	<path class="st13" d="M329.6,323c1.9,8.2,2.9,16.7,2.9,25.3c-0.1,1.4,0.1,2.9,0.4,4.2c0.3,1.4,1.3,2.5,2.5,2.9"/>
	<path class="st13" d="M344.8,331.3c3.2,7.9-0.1,25.6,0.2,26.8c0.2,1.3,0.9,2.4,1.8,3"/>
	<path class="st13" d="M317,321.9c-0.4,2.5-0.7,5.4-1.1,7.9c-2.5-2.6-4.1-6.2-4.3-10.1"/>
	<path class="st13" d="M296.3,389.3l-2.3,1.1"/>
	<path class="st13" d="M296.9,391.5c-0.4,2.1-0.4,4.3,0,6.4"/>
	<path class="st13" d="M310.5,367.9c0.9,1.8,1.7,3.6,2.6,5.4"/>
	<path class="st13" d="M315.5,348l2.6-4.2"/>
	<path class="st13" d="M351.7,367.9l-0.8,3.3"/>
	<path class="st13" d="M345.4,358.8c0.7-2.8,1.5-5.7,2.3-8.5"/>
	<path class="st13" d="M353,343.7c1.4-0.9,3.2-0.2,3.9,1.4"/>
	<path class="st13" d="M337.5,329.2c1.8-0.6,3.8-0.1,5.2,1.4"/>
	<path class="st13" d="M289.3,337.7c1.7-2.2,4.2-3.3,6.7-3"/>
	<path class="st13" d="M279.6,313.8c1.6-1.3,3.5-1.9,5.4-1.5"/>
	<path class="st2" d="M281.6,370.4c-1.3,1.2-2.3,2.6-3.2,4.2L281.6,370.4z"/>
	<path class="st13" d="M282.6,364.6c1.7-1.4,4.4,1.8,6,0.1c0.6-0.7,0.8-1.8,0.5-2.7c-0.2-0.9-0.3-1.9-0.3-2.9"/>
	<path class="st13" d="M330.8,355.9c2.1,5,2.5,10.8,1.2,16.2"/>
	<path class="st13" d="M343.4,363.7c0.3,2.4,0,4.8-1.1,6.9"/>
	<path class="st14" d="M326.5,485.4l-11.3-41.5c-10.6-12.7-30-24.4-31.7-42.1c-2.2-22.7-5.2-21.7-5.2-27.4c1.2-2.8,2.2-5.7,3-8.6
		c0.5-2.2,0.9-4.5,1.1-6.8c0.3-2.4,2.1-4.1,4.1-3.9c1.4,0.1,2.7,0.7,3.8,1.7c1.9,2.1,3.1,4.9,3.2,8c0.1,3,0,6-0.6,9
		c2,4.9,3.4,10.1,4.1,15.4c0.9-4.2,1.6-8.5,2.5-12.7c0.2-0.2,0.1-0.5,0.3-0.7c-1.9-3.9-0.5-3.8-4.2-12.6
		c-6.3-14.7-13.2-28.8-18.6-47.5c-0.4-1.7-0.5-3.6-0.2-5.4c1.3-5.5,6.1-4.7,8.4-1.7c0.6,0.8,1.1,1.7,1.5,2.6
		c3.3,7.9,7.2,15.4,11.6,22.5l13,20c0,0,3.9-4.2,4.4-6l0,0c0.5-1.8,0-16,0-16s-0.8,2.7-2.8,2.7c-1.5,0-4.5,1.3-6.8-1.4
		c-1.9-2.2-2.1-5.7-0.7-8.2l4.8-8.8c2.3-2.4,5.4-3.1,8.3-1.8c3.5,1.7,6.9,4.1,9.8,7c2.8-0.3,5.6,0.1,8.3,1.3
		c3.9,1.8,8.2,7.6,8.2,7.6s4.4,0,6.5,1.5c0.5,0.4,7.9,12.1,6,21.7c-1.1,5.8-1.5,14.1-2,16.3l-0.1,55.9l8.9,37"/>
	<path class="st14" d="M329.6,323c1.9,8.2,2.9,16.7,2.9,25.3c-0.1,1.4,0.1,2.9,0.4,4.2c0.3,1.4,1.3,2.5,2.5,2.9"/>
	<path class="st14" d="M344.8,331.3c3.2,7.9-0.1,25.6,0.2,26.8c0.2,1.3,0.9,2.4,1.8,3"/>
	<path class="st14" d="M317,321.9c-0.4,2.5-0.7,5.4-1.1,7.9c-2.5-2.6-4.1-6.2-4.3-10.1"/>
	<path class="st14" d="M296.3,389.3l-2.3,1.1"/>
	<path class="st14" d="M296.9,391.5c-0.4,2.1-0.4,4.3,0,6.4"/>
	<path class="st14" d="M310.5,367.9c0.9,1.8,1.7,3.6,2.6,5.4"/>
	<path class="st14" d="M315.5,348l2.6-4.2"/>
	<path class="st14" d="M351.7,367.9l-0.8,3.3"/>
	<path class="st14" d="M345.4,358.8c0.7-2.8,1.5-5.7,2.3-8.5"/>
	<path class="st14" d="M353,343.7c1.4-0.9,3.2-0.2,3.9,1.4"/>
	<path class="st14" d="M337.5,329.2c1.8-0.6,3.8-0.1,5.2,1.4"/>
	<path class="st14" d="M289.3,337.7c1.7-2.2,4.2-3.3,6.7-3"/>
	<path class="st14" d="M279.6,313.8c1.6-1.3,3.5-1.9,5.4-1.5"/>
	<path class="st14" d="M281.6,370.4c-1.3,1.2-2.3,2.6-3.2,4.2"/>
	<path class="st14" d="M282.6,364.6c1.7-1.4,4.4,1.8,6,0.1c0.6-0.7,0.8-1.8,0.5-2.7c-0.2-0.9-0.3-1.9-0.3-2.9"/>
	<path class="st14" d="M330.8,355.9c2.1,5,2.5,10.8,1.2,16.2"/>
	<path class="st14" d="M343.4,363.7c0.3,2.4,0,4.8-1.1,6.9"/>
	<path class="st4" d="M238.9,382.6c0.1,0.9,0.1,1.8-0.1,2.6c-0.7,3.8-2.7,14.9-3.5,20.9c-0.9,7.4-11.1,30.3-11.1,30.3
		s-9.4,13.7-14.2,20.8c-2.4,3.5-6.1,17.7-9.2,31.2c-4-1.4-8-2.9-11.9-4.6c-3.2-1.4-6.5-2.8-9.7-4.3c-5.8-2.8-11.4-6-16.9-9.6
		c1.8-7.6,3-13.5,3-13.8c-0.1-0.8,3.8-9.6,3.8-9.6l-3.4-52.4l-2-8c-1-4.1-1.7-8.4-2-12.6c-0.4-6.5,0-13,1.4-19.4l5.9-10.2l2.7-0.2
		l8.5-13.9c0,0,4.6-1.6,5.8,2.4c1.2,4-3.8,11.6-3.8,11.6l-1.7,12.5l4.1,11.7l2.2,0.9c0,0,0.7-20.6,0.2-24.7l4.4-18.7
		c1.3-3.1,2.5-6.2,3.5-9.4c0.8-3.1,5.7-6.3,8.4-0.7c1,2,1.1,4.5,0.4,6.7c-1.1,3.9-2.1,6.9-2.1,6.9s-1.1,15.9-1.4,16.3
		c-0.3,0.4,2,23.7,2,23.7l1.8,0.9l0.6-22.2l3.7-20.8c0,0-0.3-10,5.7-8.8c1.9-0.1,3.7,1.2,4.4,3.2c1.6,3.6,0.1,27.6,0.1,27.6
		l1.5,24.8l2.4,19.1l2.8-13.1c0,0,0.2-18.8,10.3-20.4c0,0,3-0.6,3.6,1.8s-1.5,7.5-1.2,12.3C238.3,376.9,238.7,380.7,238.9,382.6z"/>
	<path class="st2" d="M235.8,359.4c-0.5-2.5-3.5-2.1-3.5-2.1c-10.2,0.7-11.6,19.4-11.6,19.4l-3.7,12.8l-1.1-19.3l0.1-24.9
		c0,0,3.1-23.8,1.7-27.5c-0.6-2.1-2.3-3.5-4.2-3.6c-5.9-1.7-6.3,8.3-6.3,8.3l-5,20.4l-2.1,22l-1.7-1.1c0,0-0.8-23.4-0.5-23.8
		c0.3-0.4,2.4-16.2,2.4-16.2s1.1-2.9,2.5-6.7c0.8-2.1,0.8-4.6,0-6.7c-2.4-5.7-7.4-3.1-8.5,0c-1.2,3.1-2.6,6.2-4.1,9.1l-5.7,18.3
		c0.2,4.1-1.8,24.6-1.8,24.6l-2.1-1.1l-3.3-12l2.5-12.3c0,0,5.5-7.1,4.6-11.2c-0.9-4.1-5.6-2.9-5.6-2.9l-9.4,13.1h-2.8l-6.5,9.6
		c-2.9,10.3-3.4,21.3-1.5,32l1.5,8.1v52.5c0,0-4.5,8.4-4.5,9.2c0,0.4-1.8,7-4.4,15.3c11.2,7.7,20.9,13.7,27.7,16.8
		c3.2,1.5,6.5,2.9,9.7,4.3c4.1-13.5,8.9-27.9,11.6-31.3c5.3-6.7,15.5-19.5,15.5-19.5s11.7-21.9,13.1-29.2c1.1-6,3.9-16.9,4.8-20.6
		c0.2-0.8,0.3-1.7,0.3-2.6c-0.1-2-0.2-5.8-0.2-9.2C233.8,366.7,236.3,361.9,235.8,359.4z"/>
	<g>
		<defs>
			<path id="SVGID_3_" d="M235.8,359.4c-0.5-2.5-3.5-2.1-3.5-2.1c-10.2,0.7-11.6,19.4-11.6,19.4l-3.7,12.8l-1.1-19.3l0.1-24.9
				c0,0,3.1-23.8,1.7-27.5c-0.6-2.1-2.3-3.5-4.2-3.6c-5.9-1.7-6.3,8.3-6.3,8.3l-5,20.4l-2.1,22l-1.7-1.1c0,0-0.8-23.4-0.5-23.8
				c0.3-0.4,2.4-16.2,2.4-16.2s1.1-2.9,2.5-6.7c0.8-2.1,0.8-4.6,0-6.7c-2.4-5.7-7.4-3.1-8.5,0c-1.2,3.1-2.6,6.2-4.1,9.1l-5.7,18.3
				c0.2,4.1-1.8,24.6-1.8,24.6l-2.1-1.1l-3.3-12l2.5-12.3c0,0,5.5-7.1,4.6-11.2c-0.9-4.1-5.6-2.9-5.6-2.9l-9.4,13.1h-2.8l-6.5,9.6
				c-2.9,10.3-3.4,21.3-1.5,32l1.5,8.1v52.5c0,0-4.5,8.4-4.5,9.2c0,0.4-1.8,7-4.4,15.3c11.2,7.7,20.9,13.7,27.7,16.8
				c3.2,1.5,6.5,2.9,9.7,4.3c4.1-13.5,8.9-27.9,11.6-31.3c5.3-6.7,15.5-19.5,15.5-19.5s11.7-21.9,13.1-29.2c1.1-6,3.9-16.9,4.8-20.6
				c0.2-0.8,0.3-1.7,0.3-2.6c-0.1-2-0.2-5.8-0.2-9.2C233.8,366.7,236.3,361.9,235.8,359.4z"/>
		</defs>
		<clipPath id="SVGID_4_">
			<use xlink:href="#SVGID_3_"  style="overflow:visible;"/>
		</clipPath>
		<g class="st15">
			<path class="st0" d="M165.7,354.1c1.8-2.5,5.3-3.5,7.4-1.3c1,1.4,1.7,3.2,1.8,5.1c0.1,1.9,0.7,3.7,1.6,5.2c1.1,1.4,3.1,2,4.2,0.6
				c0.2,2.8,0.3,5.5,0.4,8.3c2.5-5.2,3.8-11,3.7-17c0-2.9-0.4-5.8,0.2-8.6s2.4-5.5,4.9-5.6c2.7-0.1,4.9,3,5.4,6.1s-0.1,6.3-0.2,9.5
				c-0.3,4.9,0.5,9.7,2.3,14.2l1.7-4.1c0.5,2.7,1.1,5.4,1.5,8.2c0.4-6,0.9-12,1.3-18c0-1.7,0.4-3.4,0.9-4.9c0.6-1.6,2-2.6,3.5-2.5
				c1.9,0.2,3.1,2.7,3.7,4.8c4.9,16.1,2.9,33.8,0.8,50.7c1.4,0.3,2.5-1.3,2.8-2.9c0.2-1.6,0.4-3.2,0.7-4.7c0.5-1.5,2.1-2.7,3.2-1.9
				c1.7,1.3,0.5,5.1,2.3,6.2c0.6-5,2.3-9.8,4.9-13.8c1.2-1.8,3-3.6,4.9-3c1.4,0.6,2.4,2.1,2.6,3.8c0.2,1.7,2.3-5.3,1.9-3.7
				c0.8-9.7-0.8-10.8,0-20.5c0.2-1.8,2.6-4.8,1.5-6.1s-3.9-3-5.2-2.3s-5.5,3.2-6.4,4.5c-5.3,8.6-4.9,21-6.6,31.4
				c-1.4-15.9-2.8-32-0.3-47.7c1.4-8.7,3.9-17.7,1.5-26c-1.1-3.8-4-7.6-7.4-6.9c-2.7,0.6-4.3,3.8-5.5,6.8c-3.7,10-5.4,20.8-7,31.6
				l6.1-32.4c0.7-2.8,0.9-5.7,0.6-8.5c-0.4-2.8-2.1-5.6-4.5-6.2c-2.4-0.6-4.8,1.1-6.5,3c-6.5,6.9-8.8,17.4-10.9,27.2
				c0.9-2.5,1.3-5.2,1.3-8c-0.2-2.7-1.7-5.5-4-6.1c-2.9-0.7-5.6,2.3-6.9,5.5c-1.3,3.2-1.9,6.8-4,9.4c-1.5-2-4.3-1.9-6.2-0.4
				c-1.8,1.6-3.2,3.8-3.9,6.3c-3.4,8.9-4.8,18.7-4.2,28.4c1.6-4,5.1-6.3,8.9-5.9c-0.2-2.1-0.4-4.3-0.6-6.5"/>
			<path class="st0" d="M172.8,374.7c-0.1,1.6-0.2,3.2-0.3,4.8c0.4-1.2,1.6-1.7,2.6-1.2c0.1,0.1,0.3,0.2,0.4,0.3c0-1,0.2-2.1,0.7-3
				c0.3-1,0.4-2.3-0.4-2.8c-0.8-0.5-1.9,0.7-2.4,1.8c0-0.4-0.1-0.8-0.1-1.2L172.8,374.7z"/>
			<path class="st0" d="M188.3,371.9c-1.1,1.5-1.9,3.3-2.2,5.3c0.4-0.6,1-1,1.6-1.4c0.6-0.3,1.3-0.1,1.8,0.5
				c0.2,0.4,0.3,0.9,0.7,1.1c0.4,0.2,0.9,0,1.1-0.5c0.2-0.4,0.3-0.9,0.3-1.4c0.1-0.9,0.1-1.8-0.1-2.7c-0.2-0.9-0.8-1.6-1.6-1.9
				c-0.8-0.2-1.5,0.4-1.7,1.2c0,0,0,0.1,0,0.1L188.3,371.9z"/>
			<path class="st0" d="M203.3,376.2c-1.2,1.9-2,4-2.3,6.3c0.8-0.2,1.5-0.7,2.1-1.3c0.6-0.7,1.3-1.1,2.2-1.3
				c0.8-0.1,1.6,0.6,1.7,1.5c0,0,0,0,0,0c-0.1-1.1-0.1-2.1,0.1-3.2c0.2-1.1,0.1-2.2-0.2-3.2c-0.3-1-1.1-1.8-2.1-1.8
				c-0.8,0.1-1.4,0.9-1.4,1.8c0,0.2,0,0.3,0.1,0.5L203.3,376.2z"/>
			<path class="st0" d="M162,382.5c-0.8,1.8-1.3,3.9-1.3,5.9c0.1-1,0.8-1.7,1.6-1.8c0.8-0.1,1.6,0.2,2.3,0.7
				c0.2-0.9,0.3-1.9,0.2-2.9c-0.1-1-0.8-1.8-1.6-2c-0.8-0.2-1.7,0.8-1.5,1.7l-0.2-0.7L162,382.5z"/>
			<path class="st11" d="M165.7,354.1c1.8-2.5,5.3-3.5,7.4-1.3c1,1.4,1.7,3.2,1.8,5.1c0.1,1.9,0.7,3.7,1.6,5.2
				c1.1,1.4,3.1,2,4.2,0.6c0.2,2.8,0.3,5.5,0.4,8.3c2.5-5.2,3.8-11,3.7-17c0-2.9-0.4-5.8,0.2-8.6s2.4-5.5,4.9-5.6
				c2.7-0.1,4.9,3,5.4,6.1s-0.1,6.3-0.2,9.5c-0.3,4.9,0.5,9.7,2.3,14.2l1.7-4.1c0.5,2.7,1.1,5.4,1.5,8.2c0.4-6,0.9-12,1.3-18
				c0-1.7,0.4-3.4,0.9-4.9c0.6-1.6,2-2.6,3.5-2.5c1.9,0.2,3.1,2.7,3.7,4.8c4.9,16.1,2.9,33.8,0.8,50.7c1.4,0.3,2.5-1.3,2.8-2.9
				c0.2-1.6,0.4-3.2,0.7-4.7c0.5-1.5,2.1-2.7,3.2-1.9c1.7,1.3,0.5,5.1,2.3,6.2c0.6-5,2.3-9.8,4.9-13.8c1.2-1.8,3-3.6,4.9-3
				c1.4,0.6,2.4,2.1,2.6,3.8c0.2,1.7,2.3-5.3,1.9-3.7c0.8-9.7-0.8-10.8,0-20.5c0.2-1.8,2.6-4.8,1.5-6.1s-3.9-3-5.2-2.3
				s-5.5,3.2-6.4,4.5c-5.3,8.6-4.9,21-6.6,31.4c-1.4-15.9-2.8-32-0.3-47.7c1.4-8.7,3.9-17.7,1.5-26c-1.1-3.8-4-7.6-7.4-6.9
				c-2.7,0.6-4.3,3.8-5.5,6.8c-3.7,10-5.4,20.8-7,31.6l6.1-32.4c0.7-2.8,0.9-5.7,0.6-8.5c-0.4-2.8-2.1-5.6-4.5-6.2
				c-2.4-0.6-4.8,1.1-6.5,3c-6.5,6.9-8.8,17.4-10.9,27.2c0.9-2.5,1.3-5.2,1.3-8c-0.2-2.7-1.7-5.5-4-6.1c-2.9-0.7-5.6,2.3-6.9,5.5
				c-1.3,3.2-1.9,6.8-4,9.4c-1.5-2-4.3-1.9-6.2-0.4c-1.8,1.6-3.2,3.8-3.9,6.3c-3.4,8.9-4.8,18.7-4.2,28.4c1.6-4,5.1-6.3,8.9-5.9
				c-0.2-2.1-0.4-4.3-0.6-6.5"/>
			<g class="st12">
				<path class="st2" d="M172.8,374.7c-0.1,1.6-0.2,3.2-0.3,4.8c0.4-1.2,1.6-1.7,2.6-1.2c0.1,0.1,0.3,0.2,0.4,0.3c0-1,0.2-2.1,0.7-3
					c0.3-1,0.4-2.3-0.4-2.8c-0.8-0.5-1.9,0.7-2.4,1.8c0-0.4-0.1-0.8-0.1-1.2L172.8,374.7z"/>
				<path class="st2" d="M188.3,371.9c-1.1,1.5-1.9,3.3-2.2,5.3c0.4-0.6,1-1,1.6-1.4c0.6-0.3,1.3-0.1,1.8,0.5
					c0.2,0.4,0.3,0.9,0.7,1.1c0.4,0.2,0.9,0,1.1-0.5c0.2-0.4,0.3-0.9,0.3-1.4c0.1-0.9,0.1-1.8-0.1-2.7c-0.2-0.9-0.8-1.6-1.6-1.9
					c-0.8-0.2-1.5,0.4-1.7,1.2c0,0,0,0.1,0,0.1L188.3,371.9z"/>
				<path class="st2" d="M203.3,376.2c-1.2,1.9-2,4-2.3,6.3c0.8-0.2,1.5-0.7,2.1-1.3c0.6-0.7,1.3-1.1,2.2-1.3
					c0.8-0.1,1.6,0.6,1.7,1.5c0,0,0,0,0,0c-0.1-1.1-0.1-2.1,0.1-3.2c0.2-1.1,0.1-2.2-0.2-3.2c-0.3-1-1.1-1.8-2.1-1.8
					c-0.8,0.1-1.4,0.9-1.4,1.8c0,0.2,0,0.3,0.1,0.5L203.3,376.2z"/>
				<path class="st2" d="M162,382.5c-0.8,1.8-1.3,3.9-1.3,5.9c0.1-1,0.8-1.7,1.6-1.8c0.8-0.1,1.6,0.2,2.3,0.7
					c0.2-0.9,0.3-1.9,0.2-2.9c-0.1-1-0.8-1.8-1.6-2c-0.8-0.2-1.7,0.8-1.5,1.7l-0.2-0.7L162,382.5z"/>
			</g>
		</g>
	</g>
	<path class="st14" d="M151.4,462.9c2.6-8.3,4.4-14.9,4.4-15.3c0-0.8,4.5-9.2,4.5-9.2v-52.5l-1.5-8.1c-1.9-10.6-1.4-21.6,1.5-32
		l6.5-9.6h2.8l9.4-13.1c0,0,4.7-1.3,5.6,2.9s-4.6,11.2-4.6,11.2l-2.5,12.3l3.3,12l2.1,1.1c0,0,2-20.4,1.8-24.6l5.7-18.3
		c1.5-2.9,2.9-6,4.1-9.1c1.1-3.1,6.1-5.7,8.5,0c0.8,2.1,0.8,4.6,0,6.7c-1.4,3.8-2.5,6.7-2.5,6.7s-2.1,15.8-2.4,16.2
		c-0.3,0.4,0.5,23.8,0.5,23.8l1.7,1.1l2.1-22l5-20.4c0,0,0.3-10,6.3-8.3c1.9,0.1,3.6,1.5,4.2,3.6c1.4,3.7-1.7,27.5-1.7,27.5
		l-0.1,24.9l1.1,19.3l3.7-12.8c0,0,1.4-18.7,11.6-19.4c0,0,3-0.4,3.5,2.1c0.5,2.5-2,7.3-2,12.1c0,3.4,0.2,7.2,0.2,9.2
		c0.1,0.9,0,1.8-0.3,2.6c-1,3.8-3.7,14.6-4.8,20.6c-1.4,7.3-13.1,29.2-13.1,29.2s-10.3,12.8-15.5,19.5c-2.6,3.4-7.4,17.8-11.6,31.3"
		/>
	<path class="st5" d="M182.6,364.6c0.6,2.5,0,5.3-1.5,7.2"/>
	<path class="st5" d="M165.2,382.3c1.5-2.7,2.9-6.4,2.5-9.5c-0.8-6.2-3.2-13.3-2.2-19.5c0.7-3.9,1.4-7.8,2.1-11.8"/>
	<path class="st14" d="M208.3,323.7c1.8-0.5,3.6-0.5,5.4,0c0-0.6,0-1.2,0.1-1.8"/>
	<path class="st14" d="M194.1,315.8c1.6,1.3,3.7,0.8,4.8-1.1c0.4-0.7,0.6-1.5,0.6-2.3"/>
	<path class="st14" d="M233.1,359.6c-3.1,0.9-5.2,4.3-5,8l2.6,0.9"/>
	<path class="st5" d="M198.4,361.2c0.1,2.1-0.1,7.2,0,9.3"/>
	<path class="st5" d="M200.3,364.1c-0.2,3.5-0.4,6.9-0.7,10.4c0-0.4,0-0.9,0-1.3"/>
	<path class="st5" d="M216.8,393.4c0.8,3.8,0.4,7.9-1,11.4"/>
	<path class="st14" d="M189.4,375.2c-2.4,3-2,10.3-0.3,14.3"/>
	<path class="st14" d="M206.8,380.2c0,3.4-1,6.7-2.9,9.3"/>
	<path class="st14" d="M172.3,376.6c-0.4,3.1,0.2,6.2,1.6,8.8"/>
	<path class="st14" d="M162.3,386.1c-0.1,2.4,0.5,4.8,1.7,6.7"/>
	<path class="st14" d="M176,327.8c1.3-0.7,2.8-0.4,3.8,0.7l1.3-2.1"/>
	<path class="st14" d="M187.1,337.1c1.9-1.3,4.3-0.8,5.7,1.1"/>
	<path class="st14" d="M204.4,343.4c2-1,4.2-1,6.1,0.2"/>
	<path class="st14" d="M165.9,354c1.2-2.3,3.4-3.6,5.7-3.3"/>
	<path class="st14" d="M158.6,366.1c0.1-1.7,1.1-3.1,2.6-3.4"/>
</g>
<g id="freepik--Coffee--inject-17">
	<ellipse class="st16" cx="437" cy="222.9" rx="44.8" ry="52.4"/>
	<path class="st4" d="M487.7,224.3c-9.6,18.3-13,15.8-45.5,34.1c-16.5,9.3-32.5-20.5-21.7-51.1c0.5-1.5,5.2-9,5.2-9
		c2.9-15,15.7-24.4,28.6-21c5.2,1.4,9.8,4.7,13.1,9.5c6.3-6.3,14.8-8.7,22.9-6.4c0.4,1.3,0.7,2.5,1.1,3.8c0.1,0.5,0.3,0.9,0.4,1.4
		c0.4,1.5,0.8,3,1.2,4.4c0.7,2.8,1.4,5.7,2,8.5c-3.5-1.3-7.3-1.1-10.6,0.7c-2.4,1.4-4.4,3.6-6.9,4.7s-5.9,0.5-6.9-2.4
		c1.2,5.8,6.5,4.1,11.5,5.2C489.8,208.7,491.7,216.6,487.7,224.3z"/>
	<path class="st17" d="M473,215.3c0,0,8-1.3,11.8-0.6c1.8,0.3,3.5,1.4,4.7,3.1c0.3,0.5,0.5,1.1,0.6,1.7l0.4,7.3
		c0,0.8-0.2,1.7-0.7,2.3c-1.6,1.9-6.3,5.4-20.3,6.6C449.8,237.4,473,215.3,473,215.3z"/>
	<path class="st17" d="M467.2,196.3c4.3,6.3,6.7,14.2,6.6,22.3c0,8.7-8.6,38.6-30.8,42.2c-23.4,3.8-42.3-19.6-38.3-47.8
		C407.5,193.4,448.3,169,467.2,196.3z"/>
	<ellipse class="st2" cx="438.5" cy="216.6" rx="34" ry="37.6"/>
	<ellipse class="st9" cx="438.5" cy="218.6" rx="27.9" ry="30.9"/>
	<path class="st16" d="M472.5,216.6c0-20.8-15.2-37.6-34-37.6s-34,16.9-34,37.6"/>
	<path class="st16" d="M463.6,242.1c5.7-6.8,8.9-15.9,9-25.5"/>
	<path class="st16" d="M414.7,243.5c6.5,7,15,10.8,23.8,10.8c5.5,0,10.9-1.5,15.8-4.3"/>
	<path class="st16" d="M409.8,236.8c0.4,0.8,0.9,1.5,1.4,2.3"/>
	<path class="st16" d="M404.5,216.6c0,5.6,1.1,11.1,3.2,16.1"/>
	<path class="st17" d="M488.4,226.9c0,0-6.1-5-15.9-0.5"/>
	<path class="st17" d="M483.2,230.4c-4.1,1.3-8.3,2.1-12.6,2.3"/>
	<path class="st17" d="M486.4,228.8c-0.5,0.4-1,0.7-1.5,0.9"/>
	<path class="st2" d="M491.7,185.6c-0.1-0.5-0.3-0.9-0.4-1.4c-2.1-7.5-4.7-15.7-8-24.4c-0.6-1.6-1.2-3.2-1.8-4.9l-0.7,0.1
		c-3.1,0.4-6.4,0.8-8.9,2.9c-2.5,2.1-4.1,6.4-2.4,9.5s5.9,4.8,5.2,8.3c-6.9,4.6-15.4,4-23.1,6.3c-4.6,1.4-9,3.8-12.9,7.1l0,0
		c-1.2,1.1-2.4,2.2-3.5,3.4c-0.5,0.6-1,1.2-1.4,1.8l0,0c-0.7,0.9-1.1,2-1.2,3.2c-0.3,3.4,2.4,5.7,5.2,7.1c0.3,0.1,0.5,0.6,0.4,0.9
		c-0.1,0.2-0.2,0.3-0.4,0.4c-1.8,0.8-3.6,1.9-5,3.4l0,0c-0.5,0.5-0.6,1.5-0.1,2.1c0.3,0.4,0.7,0.6,1.2,0.5h0.4
		c1.1-0.1,2.2,0,3.2,0.5c1.5,0.4,2.6,1.8,2.9,3.6c0.2,2.5-2.3,4.9-5.6,5.2c-0.8,0.1-0.2,1.2,1,1.4c2.3,0.3,4.7,0.1,6.9-0.7
		c2.7-0.8,5.6-1.9,7.1-4.6c0.6-1.2,0.9-2.6,0.6-4c-0.1-1.9-1.3-3.4-2.9-3.7c5-0.7,10-1.9,14.8-3.5l0,0l1.5-0.5
		c1.5-0.4,2.9-1.2,4.2-2.1c0.8-0.6,1.4-1.4,1.8-2.4c1.1-2.5-0.5-6.6-2.9-6c7-3.2,14.3-5.1,21.4-8
		C489.5,186.6,490.6,186.1,491.7,185.6z"/>
</g>
<g id="freepik--Monitor--inject-17">
	<path class="st4" d="M438.3,76.3c-6.7,6.7-13.9,12.6-21.5,17.7c-39.3,27.2-83.8,43.5-129,51.5c-45.2,7.9-91.2,7.7-136.8,3.3
		c-8.9-0.9-18-1.9-26.3-6.1c-7-3.6-13.3-9.8-16.2-17.9c9.9-13.1,19-26.4,29.2-39c2.4-3,4.9-5.9,7.5-8.8c2.2-2.4,4.3-4.8,6.6-7.1
		c2.6-2.6,5.2-5.3,8-7.8c3.8-3.5,7.9-6.8,12.2-10c1.1-0.8,2.2-1.6,3.2-2.3c107.7-78.3,187-52.7,239.9,0c4,4,7.9,8.1,11.6,12.4
		c2.2,2.5,4.4,5.2,6.5,7.8c0.2,0.3,0.5,0.6,0.7,0.9C435.5,72.5,436.9,74.4,438.3,76.3z"/>
	<path class="st17" d="M442.6,63.7L80.1,65.7l5.5-9.6c2.6-4.6,7.1-7.4,11.8-7.4h328c4.3,0,8.4,2.3,11.1,6.2L442.6,63.7z"/>
	<path class="st18" d="M247.8,127.3h19.9c20.4,0,36.9,19.3,36.9,43.1v23.2c0,23.8-16.5,43.1-36.9,43.1h-19.9
		c-20.4,0-36.9-19.3-36.9-43.1v-23.2C210.9,146.6,227.4,127.3,247.8,127.3z"/>
	<path class="st19" d="M227.9,191.3v15.6c0,4.9,3.4,8.8,7.6,8.8h45.7c4.2,0,7.5-3.9,7.6-8.8c0.1-7,0.4-15.6,0.4-15.6L227.9,191.3z"
		/>
	<path class="st20" d="M395.1,196.5H128c-2.8,0-5.3-2-6.4-5.1L80.4,67.7c-0.8-2.5,0.2-5.4,2.4-6.4c0.5-0.2,1-0.3,1.5-0.3h354.4
		c2.3,0,4.2,2.2,4.2,4.9c0,0.6-0.1,1.2-0.3,1.8l-41.2,123.6C400.4,194.4,397.9,196.5,395.1,196.5z"/>
	<polygon class="st9" points="397.1,185.7 125.4,185.7 88,68.8 434.3,68.8 	"/>
	<rect x="228.2" y="196.3" class="st9" width="60.6" height="4.9"/>
	<path class="st0" d="M357.4,180.7H165.5c-1.1,0-2.1-0.6-2.2-1.3L136,78c-0.3-1.1,0.6-2.1,1.9-2.1H385c1.4,0,2.2,0.9,1.9,2.1
		l-27.3,101.4C359.4,180.1,358.4,180.7,357.4,180.7z"/>
	<polygon class="st9" points="356.7,178.4 166.2,178.4 143,89.3 379.9,89.3 	"/>
	<path class="st2" d="M193.6,111.4h-36.1c-0.9,0-1.5,0.6-1.3,1.3c0.4,0.8,1.1,1.3,1.9,1.3h35.9c0.9,0,1.5-0.6,1.4-1.3
		C195.3,112,194.4,111.4,193.6,111.4z"/>
	<path class="st2" d="M194.8,119.1h-30.7c-0.9,0-1.5,0.5-1.3,1.3c0.4,0.8,1.1,1.3,1.8,1.2h30.5c0.9,0,1.5-0.5,1.4-1.2
		C196.4,119.7,195.6,119.1,194.8,119.1z"/>
	<path class="st11" d="M195.9,126.5h-34.8c-0.9,0-1.4,0.5-1.3,1.2c0.4,0.8,1.1,1.2,1.8,1.2h34.6c0.9,0,1.5-0.5,1.4-1.2
		C197.5,127.1,196.8,126.5,195.9,126.5z"/>
	<path class="st2" d="M197,133.7h-20.4c-0.8,0-1.4,0.5-1.3,1.1c0.1,0.6,0.9,1.1,1.8,1.1h20.3c0.8,0,1.4-0.5,1.4-1.1
		C198.7,134.2,197.9,133.7,197,133.7z"/>
	<path class="st2" d="M198.1,140.6h-33.6c-0.8,0-1.4,0.5-1.2,1.1c0.2,0.6,0.9,1.1,1.8,1.1h33.4c0.8,0,1.4-0.5,1.3-1.1
		C199.7,141.1,199,140.6,198.1,140.6z"/>
	<path class="st2" d="M199.2,147.3H172c-0.8,0-1.4,0.5-1.2,1c0.1,0.6,0.9,1,1.7,1h27c0.8,0,1.4-0.5,1.3-1S200,147.3,199.2,147.3z"/>
	<path class="st2" d="M200.2,153.8h-26.7c-0.8,0-1.4,0.5-1.2,1c0.1,0.6,0.9,1,1.7,1h26.6c0.8,0,1.4-0.5,1.3-1
		C201.7,154.3,201,153.8,200.2,153.8z"/>
	<path class="st2" d="M201.2,160.1H172c-0.8,0-1.3,0.4-1.2,1c0.1,0.5,0.9,1,1.7,1h29c0.8,0,1.4-0.4,1.3-1
		C202.6,160.5,202,160.1,201.2,160.1z"/>
	<path class="st11" d="M202.1,166.2h-18.8c-0.8,0-1.3,0.4-1.2,1c0.1,0.5,0.8,0.9,1.6,0.9h18.7c0.8,0,1.3-0.4,1.3-0.9
		C203.6,166.6,202.9,166.2,202.1,166.2z"/>
	<path class="st11" d="M192.3,103.4h-26.9c-0.9,0-1.5,0.6-1.4,1.3c0.4,0.8,1.1,1.3,1.9,1.3h26.7c0.9,0,1.5-0.6,1.4-1.3
		C193.8,103.8,193.1,103.3,192.3,103.4z"/>
	<path class="st2" d="M191,95.2h-37.4c-0.9,0-1.5,0.6-1.3,1.4c0.4,0.9,1.2,1.4,2,1.3h37.2c0.9,0,1.6-0.6,1.5-1.3
		C192.6,95.6,191.8,95.1,191,95.2z"/>
	<path class="st2" d="M203.1,172.1h-31c-0.8,0-1.3,0.4-1.2,0.9s0.8,0.9,1.6,0.9h30.8c0.8,0,1.3-0.4,1.2-0.9
		C204.5,172.5,203.8,172.1,203.1,172.1z"/>
	<polygon class="st11" points="206.2,114.2 213.2,114.2 212.9,111.1 205.8,111.1 	"/>
	<polygon class="st11" points="207.2,121.8 214.1,121.8 213.7,118.8 206.8,118.8 	"/>
	<polygon class="st11" points="208.1,129.2 214.9,129.2 214.6,126.2 207.8,126.2 	"/>
	<polygon class="st11" points="209,136.2 215.7,136.2 215.4,133.4 208.7,133.4 	"/>
	<polygon class="st11" points="209.9,143.1 216.5,143.1 216.1,140.4 209.6,140.4 	"/>
	<polygon class="st11" points="210.8,149.7 217.2,149.7 216.9,147.1 210.4,147.1 	"/>
	<polygon class="st11" points="211.6,156.1 217.9,156.1 217.6,153.6 211.3,153.6 	"/>
	<polygon class="st11" points="212.4,162.3 218.6,162.3 218.3,159.9 212.1,159.9 	"/>
	<polygon class="st11" points="213.2,168.3 219.3,168.3 219,165.9 212.9,165.9 	"/>
	<polygon class="st11" points="205.2,106.3 212.3,106.3 212,103.1 204.8,103.1 	"/>
	<polygon class="st11" points="204.2,98.2 211.4,98.2 211,94.8 203.7,94.8 	"/>
	<polygon class="st11" points="213.9,174.1 219.9,174.1 219.7,171.8 213.6,171.8 	"/>
	<path class="st2" d="M250.8,161.1c0-0.5,0.6-1,1.4-1h103.5c0.8,0,1.3,0.4,1.2,1c-0.3,0.7-1,1.1-1.7,1h-103
		C251.4,162.1,250.8,161.6,250.8,161.1z"/>
	<path class="st2" d="M356.7,155.9h-57.3c-0.8,0-1.4-0.5-1.4-1c0.1-0.6,0.7-1,1.6-1h57.6c0.8,0,1.3,0.5,1.2,1
		C358.1,155.5,357.4,155.9,356.7,155.9z"/>
	<path class="st11" d="M285.8,155.9H268c-0.8,0-1.4-0.5-1.4-1c0-0.6,0.7-1,1.5-1h17.9c0.8,0,1.4,0.5,1.4,1
		C287.3,155.4,286.6,155.9,285.8,155.9z"/>
	<path class="st2" d="M323,149.4h-80.9c-0.8,0-1.5-0.5-1.5-1c0-0.6,0.6-1,1.4-1h81.3c0.8,0,1.4,0.5,1.3,1
		C324.6,149,323.8,149.4,323,149.4z"/>
	<path class="st11" d="M225.2,147.3h5.8c0.8,0,1.5,0.5,1.6,1s-0.6,1-1.4,1h-5.7c-0.8,0-1.5-0.5-1.6-1
		C223.8,147.8,224.4,147.3,225.2,147.3z"/>
	<path class="st2" d="M334.7,141.7c-0.1,0.6-0.9,1.1-1.7,1.1h-76.2c-0.8,0-1.5-0.5-1.5-1.1c0-0.6,0.7-1.1,1.5-1.1h76.6
		C334.2,140.6,334.8,141.1,334.7,141.7z"/>
	<path class="st2" d="M224.6,140.6h21.6c0.8,0,1.5,0.5,1.5,1.1c0,0.6-0.6,1.1-1.5,1.1h-21.5c-0.8,0-1.5-0.5-1.6-1.1
		S223.8,140.6,224.6,140.6z"/>
	<path class="st2" d="M224,133.7h83.1c0.8,0,1.5,0.5,1.4,1.1c-0.1,0.6-0.8,1.1-1.7,1.1h-82.7c-0.8,0-1.6-0.5-1.6-1.1
		C222.5,134.2,223.2,133.7,224,133.7z"/>
	<path class="st2" d="M278,128.9c-0.9,0-1.5-0.5-1.5-1.2c0-0.6,0.7-1.2,1.6-1.2h43.9c0.9,0,1.5,0.5,1.4,1.2
		c-0.1,0.6-0.9,1.2-1.7,1.2H278z"/>
	<path class="st2" d="M223.4,126.5h38c0.9,0,1.6,0.5,1.6,1.2s-0.7,1.2-1.6,1.2h-37.7c-0.9,0-1.6-0.5-1.7-1.2
		C221.8,127.1,222.5,126.5,223.4,126.5z"/>
	<path class="st2" d="M365.2,121.5H260.7c-0.9,0-1.6-0.5-1.6-1.2s0.7-1.3,1.6-1.3h105.1c0.9,0,1.4,0.5,1.3,1.3
		C366.7,121.1,365.9,121.6,365.2,121.5z"/>
	<path class="st2" d="M367,113.9h-91.9c-0.9,0-1.6-0.6-1.6-1.3c0-0.7,0.8-1.3,1.6-1.3h92.5c0.9,0,1.5,0.6,1.3,1.3
		C368.6,113.5,367.8,114,367,113.9z"/>
	<path class="st11" d="M369,106h-19.3c-0.9,0-1.5-0.6-1.4-1.3c0.3-0.8,1.1-1.3,1.9-1.3h19.3c0.9,0,1.5,0.6,1.3,1.3
		C370.5,105.6,369.8,106.1,369,106z"/>
	<path class="st2" d="M336.2,106h-70.7c-0.9,0-1.6-0.6-1.6-1.3c0-0.7,0.7-1.3,1.6-1.3h71.1c0.9,0,1.5,0.6,1.4,1.3
		C337.8,105.6,337,106.1,336.2,106z"/>
	<path class="st2" d="M226.9,166.2h65.3c0.8,0,1.4,0.4,1.3,1c-0.1,0.5-0.7,0.9-1.5,0.9h-64.9c-0.8,0-1.4-0.4-1.5-0.9
		C225.6,166.6,226.2,166.2,226.9,166.2z"/>
	<path class="st2" d="M227.5,172.1h100.3c0.8,0,1.3,0.4,1.2,0.9s-0.8,0.9-1.5,0.9h-99.8c-0.8,0-1.4-0.4-1.5-0.9
		C226.2,172.5,226.7,172.1,227.5,172.1z"/>
	<path class="st2" d="M332.7,97.8h-51.1c-0.9,0-1.6-0.6-1.6-1.3c0-0.7,0.8-1.4,1.7-1.4h51.4c0.9,0,1.6,0.6,1.5,1.4
		C334.3,97.4,333.5,97.9,332.7,97.8z"/>
	<path class="st11" d="M267.2,97.8h-46.5c-0.9,0-1.7-0.6-1.8-1.3c-0.1-0.7,0.6-1.4,1.5-1.4h46.7c0.9,0,1.7,0.6,1.7,1.4
		C268.9,97.2,268.1,97.8,267.2,97.8z"/>
	<path class="st11" d="M306.7,166.2c0.8,0,1.4,0.4,1.3,1c-0.1,0.5-0.7,0.9-1.5,0.9h-5c-0.8,0-1.4-0.4-1.3-0.9c0.1-0.5,0.7-1,1.5-1
		H306.7z"/>
	<path class="st11" d="M244.8,161.1c0,0.5-0.6,1-1.4,1h-6.9c-0.8,0-1.5-0.4-1.5-1c0-0.5,0.6-1,1.4-1h6.9
		C244.1,160.1,244.8,160.5,244.8,161.1z"/>
	<path class="st11" d="M327.7,134.8c-0.1,0.6-0.9,1.1-1.7,1.1h-8c-0.8,0-1.4-0.5-1.4-1.1c0.1-0.6,0.8-1.1,1.7-1.1h8.1
		C327.2,133.7,327.8,134.2,327.7,134.8z"/>
	<path class="st11" d="M352.8,140.6c0.8,0,1.4,0.5,1.3,1.1c-0.3,0.7-1,1.2-1.7,1.1h-6.4c-0.8,0-1.4-0.5-1.3-1.1
		c0.3-0.7,1-1.2,1.7-1.1H352.8z"/>
	<path class="st11" d="M248,121.5c-0.9,0-1.6-0.5-1.6-1.2s0.7-1.3,1.5-1.3h6.8c0.9,0,1.6,0.5,1.6,1.3s-0.7,1.2-1.6,1.2H248z"/>
	<path class="st2" d="M155.2,82.6c0.5,1.4,0,2.9-1.2,3.6c-0.4,0.2-0.7,0.3-1.1,0.2c-1.9-0.1-3.6-1.6-4.3-3.8c-0.5-1.4,0-2.9,1.2-3.6
		c0.3-0.2,0.7-0.3,1.1-0.2C152.8,78.9,154.5,80.4,155.2,82.6z"/>
	<path class="st2" d="M164,82.7c0.5,1.4-0.1,3-1.3,3.6c-0.3,0.2-0.7,0.2-1,0.2c-1.9-0.1-3.6-1.6-4.1-3.8c-0.5-1.4,0.1-3.1,1.4-3.6
		c0.3-0.1,0.6-0.2,1-0.2C161.7,79,163.4,80.5,164,82.7z"/>
	<path class="st2" d="M172.9,82.6c0.4,1.5-0.2,3.1-1.5,3.6c-0.3,0.1-0.6,0.2-0.9,0.1c-1.9-0.1-3.5-1.6-4.1-3.8
		c-0.4-1.5,0.3-3.1,1.6-3.6c0.3-0.1,0.6-0.2,0.9-0.1C170.7,78.9,172.4,80.5,172.9,82.6z"/>
	<polygon class="st21" points="88,68.8 117.1,159.9 152.2,68.8 	"/>
	<polygon class="st21" points="137.1,185.7 195.4,68.8 256.4,68.8 170.6,185.7 	"/>
	<polygon class="st21" points="282.7,68.3 191.8,185.7 205.8,185.7 299.9,68.8 	"/>
	<polygon class="st21" points="300.6,185.7 400.4,68.8 414.5,68.8 311.6,185.7 	"/>
</g>
<g id="freepik--speech-bubbles--inject-17">
	<path class="st17" d="M165.2,236.4h-22.8c-3,0-5.4,2.8-5.4,6.3v13c0,3.5,2.4,6.3,5.4,6.3h0h6l4.5,12l6.4-12h6c3,0,5.4-2.8,5.4-6.3
		v-13.1C170.6,239.2,168.2,236.4,165.2,236.4z"/>
	<path class="st9" d="M150.7,243.8c0-0.7,0.5-1.3,1.1-1.3c0.6,0,1,0.5,1.1,1.2c0,0.7-0.5,1.3-1.1,1.3
		C151.2,245,150.7,244.5,150.7,243.8z M150.9,246.5h1.7v8.7h-1.7V246.5z"/>
	<path class="st9" d="M156.8,246v0.5h2v1.6h-2v7h-1.7v-7h-1.2v-1.6h1.2V246c-0.1-1.5,0.9-2.9,2.2-3c0.1,0,0.3,0,0.4,0
		c0.6,0,1.1,0.1,1.6,0.5l-0.5,1.5c-0.3-0.2-0.6-0.4-1-0.4C157.2,244.6,156.8,245.1,156.8,246z"/>
	<path class="st17" d="M234.6,238.2h-22.8c-3,0-5.4,2.8-5.4,6.3v13c0,3.5,2.4,6.3,5.4,6.3h0h6l4.5,12l6.4-12h6c3,0,5.4-2.8,5.4-6.3
		v-13C240,241,237.6,238.2,234.6,238.2z"/>
	<path class="st9" d="M216.6,253.3h-5.8c0.2,1.3,1.3,2.2,2.4,2.1c0.8,0,1.5-0.3,2-0.9l0.9,1.3c-1.6,1.9-4.3,1.9-5.9,0
		c-0.7-0.8-1.1-1.9-1.2-3c-0.1-2.4,1.5-4.4,3.6-4.4c0.1,0,0.2,0,0.3,0c2-0.1,3.7,1.7,3.8,4c0,0.1,0,0.3,0,0.4
		C216.7,252.9,216.6,253.1,216.6,253.3z M210.8,251.9h4.3c-0.1-1.2-1-2.2-2.1-2.1C211.9,249.7,210.9,250.7,210.8,251.9L210.8,251.9z
		"/>
	<path class="st9" d="M218.3,244.9h1.7v12h-1.7V244.9z"/>
	<path class="st9" d="M221.5,256.1l0.7-1.5c0.8,0.6,1.7,0.9,2.6,0.9c1.1,0,1.6-0.4,1.6-1c0-1.7-4.6-0.1-4.6-3.6
		c0-1.6,1.3-2.7,3.2-2.7c1,0,1.9,0.2,2.8,0.7l-0.7,1.5c-0.7-0.4-1.4-0.7-2.2-0.6c-1.1,0-1.6,0.4-1.6,1c0,1.8,4.6,0.2,4.6,3.6
		c0,1.6-1.3,2.7-3.4,2.7C223.5,257.1,222.5,256.8,221.5,256.1z"/>
	<path class="st9" d="M236.4,253.3h-5.8c0.2,1.3,1.3,2.2,2.4,2.1c0.8,0,1.5-0.3,2-0.9l0.9,1.3c-1.6,1.9-4.3,1.9-5.9,0
		c-0.7-0.8-1.1-1.9-1.2-3c-0.1-2.4,1.5-4.4,3.6-4.4c0.1,0,0.2,0,0.3,0c2-0.1,3.7,1.7,3.8,4c0,0.1,0,0.3,0,0.4
		C236.4,252.9,236.4,253.1,236.4,253.3z M230.6,251.9h4.2c-0.1-1.2-1-2.2-2.1-2.1C231.6,249.8,230.7,250.7,230.6,251.9L230.6,251.9z
		"/>
	<path class="st17" d="M301.9,237.5h-22.8c-3,0-5.4,2.8-5.4,6.3v13c0,3.5,2.4,6.3,5.4,6.3l0,0h6l4.5,12l6.4-12h6
		c3,0,5.4-2.8,5.4-6.3l0,0v-13C307.3,240.3,304.9,237.5,301.9,237.5z"/>
	<path class="st9" d="M284.3,247.1v0.5h2v1.6h-2v7h-1.7v-7h-1.2v-1.6h1.2v-0.5c-0.1-1.5,0.9-2.9,2.2-3c0.1,0,0.3,0,0.4,0
		c0.6,0,1.1,0.1,1.6,0.5l-0.5,1.5c-0.3-0.2-0.6-0.4-1-0.4C284.7,245.7,284.3,246.2,284.3,247.1z"/>
	<path class="st9" d="M286.8,251.9c-0.1-2.6,1.6-4.7,3.8-4.8c2.2-0.1,4,1.9,4.1,4.4c0.1,2.6-1.6,4.7-3.8,4.8c-0.1,0-0.1,0-0.2,0
		c-2.1,0.1-3.8-1.7-3.9-4.1C286.8,252.1,286.8,252,286.8,251.9z M293,251.9c-0.1-1.4-1.1-2.4-2.3-2.3c-1.2,0.1-2.1,1.3-2,2.7
		c0.1,1.3,1,2.3,2.1,2.3c1.2,0,2.2-1.1,2.2-2.5C293,252,293,251.9,293,251.9L293,251.9z"/>
	<path class="st9" d="M300.7,247.4v1.9c-0.1,0-0.3,0-0.4,0c-1.1-0.1-2.1,0.9-2.2,2.2c0,0.2,0,0.3,0,0.5v4.2h-1.7v-8.7h1.7v1.3
		C298.6,247.9,299.6,247.3,300.7,247.4z"/>
	<path class="st17" d="M368.2,236.4h-22.8c-3,0-5.4,2.8-5.4,6.3v13c0,3.5,2.4,6.3,5.4,6.3c0,0,0,0,0,0h6l4.5,12l6.4-12h6
		c3,0,5.4-2.8,5.4-6.3v-13.1C373.6,239.2,371.2,236.4,368.2,236.4z"/>
	<path class="st9" d="M353.8,246.1h6.4v1.7h-6.4V246.1z M353.8,250h6.4v1.6h-6.4V250z"/>
	<path class="st17" d="M200,221.4h-22.8c-3,0-5.4,2.8-5.4,6.3v13c0,3.5,2.4,6.3,5.4,6.3h6l4.5,12l6.4-12h6c3,0,5.4-2.8,5.4-6.3v-13
		C205.4,224.2,203,221.4,200,221.4C200,221.4,200,221.4,200,221.4z"/>
	<path class="st9" d="M183.2,226.8h3.3v1.6H185v11.9h1.6v1.6h-3.3V226.8z"/>
	<path class="st9" d="M190.9,242v-1.6h1.6v-11.9h-1.6v-1.6h3.3V242L190.9,242z"/>
	<path class="st17" d="M267.8,220.1H245c-3,0-5.4,2.8-5.4,6.3v13c0,3.5,2.4,6.3,5.4,6.3h6l4.5,12l6.4-12h6c3,0,5.4-2.8,5.4-6.3v-13
		C273.1,222.9,270.7,220.1,267.8,220.1z"/>
	<path class="st9" d="M251.7,233c0.6,0.2,0.8,0.6,0.8,1.7v3.1c-0.1,0.6,0.2,1.2,0.7,1.3c0.1,0,0.2,0,0.3,0h0.3v1.6h-0.7
		c-1.1,0.2-2.2-0.7-2.3-2c0-0.2,0-0.4,0-0.6v-3.3c0-0.5-0.2-0.8-0.6-0.8h-0.5v-1.7h0.5c0.4,0,0.6-0.2,0.6-0.8v-3.3
		c-0.1-1.3,0.7-2.5,1.8-2.7c0.2,0,0.4,0,0.5,0h0.7v1.6h-0.3c-0.5-0.1-1,0.3-1.1,0.9c0,0.1,0,0.3,0,0.4v3.1
		C252.5,232.4,252.3,232.8,251.7,233z"/>
	<path class="st9" d="M262.3,232.2v1.6h-0.5c-0.4,0-0.6,0.2-0.6,0.8v3.3c0.1,1.3-0.7,2.5-1.8,2.7c-0.2,0-0.4,0-0.5,0h-0.7V239h0.3
		c0.5,0.1,1-0.3,1.1-0.9c0-0.1,0-0.2,0-0.4v-3.1c0-1,0.2-1.5,0.8-1.7c-0.6-0.2-0.8-0.7-0.8-1.7v-3.1c0.1-0.6-0.3-1.2-0.8-1.3
		c-0.1,0-0.2,0-0.3,0h-0.3v-1.6h0.7c1.1-0.2,2.2,0.7,2.4,2c0,0.2,0,0.4,0,0.6v3.3c0,0.5,0.2,0.8,0.6,0.8L262.3,232.2z"/>
	<path class="st17" d="M334.8,217.5H312c-3,0-5.4,2.8-5.4,6.3v13c0,3.5,2.4,6.3,5.4,6.3h6l4.5,12l6.4-12h6c3,0,5.4-2.8,5.4-6.3v-13
		C340.2,220.2,337.8,217.5,334.8,217.5z"/>
	<path class="st9" d="M322.5,227.1c-0.1-0.7,0.4-1.4,1-1.5c0.6-0.1,1.2,0.5,1.3,1.2c0,0.1,0,0.2,0,0.3c0.1,0.7-0.4,1.4-1,1.5
		s-1.2-0.5-1.3-1.2C322.5,227.2,322.5,227.1,322.5,227.1z M324.8,233.2c0,0.5-0.1,1-0.3,1.4l-0.7,2.3h-1.1l0.6-2.5
		c-0.4-0.2-0.7-0.7-0.7-1.2c0-0.7,0.5-1.3,1.1-1.3C324.3,231.9,324.8,232.5,324.8,233.2L324.8,233.2z"/>
	<path class="st17" d="M245.7,444.2h22.8c3,0,5.4-2.8,5.4-6.3V425c0-3.5-2.4-6.3-5.4-6.3h-6l-1.7-12l-9.1,12h-6
		c-3,0-5.4,2.8-5.4,6.3v13C240.3,441.4,242.7,444.2,245.7,444.2z"/>
	<path class="st9" d="M253.7,428.8l-4.8,2.1l4.8,2.1v1.7l-6.4-2.9V430l6.4-2.9L253.7,428.8z"/>
	<path class="st9" d="M258.8,422.9h1.5l-4.6,15.3h-1.5L258.8,422.9z"/>
	<path class="st9" d="M267,430v1.8l-6.4,2.9V433l4.8-2.1l-4.8-2.1v-1.6L267,430z"/>
	<path class="st17" d="M100.8,349.7h22.8c3,0,5.4-2.8,5.4-6.3v-13c0-3.5-2.4-6.3-5.4-6.3h-6l1.3-12l-12.2,12h-6
		c-3,0-5.4,2.8-5.4,6.3v13C95.4,346.9,97.8,349.7,100.8,349.7z"/>
	<path class="st9" d="M107.5,341.5c0-0.7,0.5-1.3,1.1-1.3s1.1,0.6,1.1,1.3s-0.5,1.3-1.1,1.3S107.5,342.2,107.5,341.5z M107.6,331.3
		h2.1l-0.3,7.6H108L107.6,331.3z"/>
	<path class="st9" d="M111.5,334.2h6.4v1.6h-6.4V334.2z M111.5,338.1h6.4v1.6h-6.4V338.1z"/>
</g>
<g id="freepik--Mouse--inject-17">
	<path class="st2" d="M465.7,335c0,5-0.4,10-1.1,15c-3.1,21.9-13,37.8-24.6,37.8c-1,0-2.1-0.1-3.1-0.4
		c-12.7-3.1-22.5-25.4-22.5-52.4c0-29.2,11.5-39.5,25.6-39.5C454.2,295.6,465.7,305.8,465.7,335z"/>
	<g>
		<defs>
			<path id="SVGID_5_" d="M465.7,335c0,5-0.4,10-1.1,15c-3.1,21.9-13,37.8-24.6,37.8c-1,0-2.1-0.1-3.1-0.4
				c-12.7-3.1-22.5-25.4-22.5-52.4c0-29.2,11.5-39.5,25.6-39.5C454.2,295.6,465.7,305.8,465.7,335z"/>
		</defs>
		<clipPath id="SVGID_6_">
			<use xlink:href="#SVGID_5_"  style="overflow:visible;"/>
		</clipPath>
		<g class="st22">
			<path class="st0" d="M456.5,335.4c1,15.6-1.3,31.4-5.2,46.4c9.7-9.3,14.1-23.9,18.1-37.7c2.9-10,5.9-20.4,5.3-31
				s-5.4-21.6-13.9-25.3c-4.2-1.8-8.9-1.7-13.1,0.2c-7.1,3.3-3.2,6.1-0.2,12C452.8,310.9,455.8,323,456.5,335.4z"/>
			<path class="st11" d="M456.5,335.4c1,15.6-1.3,31.4-5.2,46.4c9.7-9.3,14.1-23.9,18.1-37.7c2.9-10,5.9-20.4,5.3-31
				s-5.4-21.6-13.9-25.3c-4.2-1.8-8.9-1.7-13.1,0.2c-7.1,3.3-3.2,6.1-0.2,12C452.8,310.9,455.8,323,456.5,335.4z"/>
		</g>
	</g>
	<path class="st14" d="M465.7,335c0,5-0.4,10-1.1,15c-3.1,21.9-13,37.8-24.6,37.8c-1,0-2.1-0.1-3.1-0.4
		c-12.7-3.1-22.5-25.4-22.5-52.4c0-29.2,11.5-39.5,25.6-39.5C454.2,295.6,465.7,305.8,465.7,335z"/>
	<path class="st5" d="M453.9,361.9c-1.7,6.8-4.6,13-8.4,18.4"/>
	<path class="st14" d="M454.7,358.2c-0.1,0.7-0.3,1.4-0.4,2.1"/>
	<path class="st5" d="M454.6,335c1.4,6.7,1.5,13.7,0.5,20.6"/>
	<path class="st14" d="M414.5,335c0,0,29.2-13.5,51.3,0"/>
	<path class="st5" d="M440.1,295.6c0,0,2.9,12.6,3.2,33.2"/>
	<path class="st20" d="M444.2,310.9c0.4,3.9-0.2,7.3-1.3,7.5c-1.1,0.2-2.3-2.8-2.6-6.7c-0.4-3.9,0.2-7.3,1.3-7.5
		C442.6,303.9,443.8,307,444.2,310.9z"/>
	<path class="st14" d="M428.6,398h-34.2c-4.2,0-7.7-3.6-8.3-8.5c-0.1-0.4-0.1-0.9-0.1-1.4v-94.2c0-0.5,0-0.9,0.1-1.4
		c0.6-4.9,4.1-8.5,8.3-8.5h96.9c1.4,0,2.8,0.4,4,1.3"/>
</g>
</svg>
